<svg xmlns="http://www.w3.org/2000/svg" fill="none" viewBox="0 0 150 44" height="44" width="150">
<g clip-path="url(#clip0_99_52)">
<path fill="black" d="M55.7334 33.2968V11.6168H59.9275V33.2968H55.7334ZM58.8173 24.4151V20.6835H69.7344V24.4151H58.8173ZM58.8173 15.3175V11.6168H70.2587V15.3175H58.8173Z"></path>
<path fill="black" d="M78.8482 33.6052C77.4912 33.6052 76.2679 33.266 75.1783 32.5875C74.0886 31.909 73.2354 30.9839 72.6186 29.812C72.0018 28.6401 71.6934 27.3243 71.6934 25.8645C71.6934 24.3842 72.0018 23.0582 72.6186 21.8863C73.2354 20.7144 74.0886 19.7892 75.1783 19.1107C76.2679 18.4323 77.4912 18.093 78.8482 18.093C79.9173 18.093 80.8733 18.3089 81.7162 18.7407C82.5592 19.1724 83.2273 19.7789 83.7208 20.5602C84.2348 21.3209 84.5123 22.1844 84.5534 23.1507V28.5167C84.5123 29.5036 84.2348 30.3773 83.7208 31.1381C83.2273 31.8988 82.5592 32.5053 81.7162 32.9576C80.8733 33.3893 79.9173 33.6052 78.8482 33.6052ZM79.5883 29.8736C80.7191 29.8736 81.634 29.5036 82.333 28.7634C83.032 28.0027 83.3815 27.0261 83.3815 25.8337C83.3815 25.0524 83.2171 24.3637 82.8881 23.7675C82.5797 23.1507 82.1377 22.6778 81.562 22.3489C81.0069 21.9993 80.349 21.8246 79.5883 21.8246C78.8482 21.8246 78.1903 21.9993 77.6146 22.3489C77.0595 22.6778 76.6175 23.1507 76.2885 23.7675C75.9801 24.3637 75.8259 25.0524 75.8259 25.8337C75.8259 26.6355 75.9801 27.3448 76.2885 27.9616C76.6175 28.5578 77.0595 29.0307 77.6146 29.3802C78.1903 29.7092 78.8482 29.8736 79.5883 29.8736ZM83.1657 33.2968V29.2877L83.8133 25.6487L83.1657 22.0713V18.4014H87.1748V33.2968H83.1657Z"></path>
<path fill="black" d="M99.0137 33.6052C97.9446 33.6052 96.9783 33.379 96.1148 32.9267C95.2513 32.4744 94.5625 31.8576 94.0485 31.0764C93.5346 30.2951 93.257 29.4213 93.2159 28.455V23.1507C93.257 22.1844 93.5346 21.3209 94.0485 20.5602C94.5831 19.7789 95.2821 19.1724 96.1456 18.7407C97.0091 18.3089 97.9651 18.093 99.0137 18.093C100.391 18.093 101.625 18.4323 102.714 19.1107C103.804 19.7892 104.657 20.7144 105.274 21.8863C105.911 23.0582 106.23 24.3842 106.23 25.8645C106.23 27.3243 105.911 28.6401 105.274 29.812C104.657 30.9839 103.804 31.909 102.714 32.5875C101.625 33.266 100.391 33.6052 99.0137 33.6052ZM90.7487 33.2968V11H94.7887V22.0713L94.1102 25.6487L94.7579 29.2877V33.2968H90.7487ZM98.3352 29.8736C99.0754 29.8736 99.723 29.7092 100.278 29.3802C100.854 29.0307 101.296 28.5578 101.604 27.9616C101.933 27.3448 102.098 26.6355 102.098 25.8337C102.098 25.0524 101.933 24.3637 101.604 23.7675C101.296 23.1507 100.854 22.6778 100.278 22.3489C99.7024 21.9993 99.0445 21.8246 98.3044 21.8246C97.5642 21.8246 96.9063 21.9993 96.3307 22.3489C95.7755 22.6778 95.3335 23.1507 95.0046 23.7675C94.6962 24.3637 94.542 25.0524 94.542 25.8337C94.542 26.6355 94.6962 27.3448 95.0046 27.9616C95.3335 28.5578 95.7858 29.0307 96.3615 29.3802C96.9372 29.7092 97.5951 29.8736 98.3352 29.8736Z"></path>
<path fill="black" d="M108.879 33.2968V18.4014H112.95V33.2968H108.879ZM110.914 15.996C110.256 15.996 109.712 15.7801 109.28 15.3483C108.848 14.896 108.632 14.3409 108.632 13.683C108.632 13.0457 108.848 12.5008 109.28 12.0485C109.712 11.5962 110.256 11.3701 110.914 11.3701C111.593 11.3701 112.138 11.5962 112.549 12.0485C112.98 12.5008 113.196 13.0457 113.196 13.683C113.196 14.3409 112.98 14.896 112.549 15.3483C112.138 15.7801 111.593 15.996 110.914 15.996Z"></path>
<path fill="black" d="M121.648 33.636C120.805 33.636 119.972 33.523 119.15 33.2968C118.348 33.0706 117.608 32.7623 116.929 32.3716C116.251 31.9604 115.665 31.467 115.172 30.8913L117.577 28.455C118.091 29.0307 118.687 29.4624 119.366 29.7503C120.044 30.0381 120.795 30.182 121.617 30.182C122.275 30.182 122.768 30.0895 123.097 29.9045C123.447 29.7194 123.621 29.4419 123.621 29.0718C123.621 28.6606 123.436 28.342 123.066 28.1158C122.717 27.8896 122.254 27.7046 121.679 27.5607C121.103 27.3962 120.496 27.2215 119.859 27.0364C119.242 26.8308 118.646 26.5738 118.07 26.2654C117.495 25.9365 117.022 25.4945 116.652 24.9394C116.302 24.3637 116.128 23.6235 116.128 22.7189C116.128 21.7732 116.354 20.9508 116.806 20.2518C117.279 19.5528 117.947 19.0079 118.811 18.6173C119.674 18.2267 120.692 18.0314 121.864 18.0314C123.097 18.0314 124.207 18.2472 125.194 18.679C126.202 19.1107 127.034 19.7584 127.692 20.6219L125.256 23.0582C124.804 22.5031 124.29 22.1021 123.714 21.8554C123.159 21.6087 122.552 21.4854 121.894 21.4854C121.298 21.4854 120.836 21.5779 120.507 21.7629C120.198 21.9479 120.044 22.2049 120.044 22.5339C120.044 22.904 120.219 23.1918 120.568 23.3974C120.938 23.603 121.411 23.788 121.987 23.9525C122.563 24.0964 123.159 24.2712 123.776 24.4768C124.413 24.6618 125.009 24.9291 125.564 25.2786C126.14 25.6281 126.603 26.0907 126.952 26.6664C127.322 27.242 127.507 27.9822 127.507 28.8868C127.507 30.3465 126.983 31.5081 125.934 32.3716C124.886 33.2146 123.457 33.636 121.648 33.636Z"></path>
<path fill="black" d="M140.254 33.2968V24.7543C140.254 23.8703 139.977 23.1507 139.422 22.5956C138.866 22.0405 138.147 21.7629 137.263 21.7629C136.687 21.7629 136.173 21.8863 135.721 22.133C135.269 22.3797 134.909 22.7292 134.641 23.1815C134.395 23.6338 134.271 24.1581 134.271 24.7543L132.699 23.9525C132.699 22.7806 132.945 21.7629 133.439 20.8994C133.932 20.0153 134.611 19.3266 135.474 18.8332C136.358 18.3397 137.366 18.093 138.496 18.093C139.627 18.093 140.624 18.3397 141.488 18.8332C142.372 19.3266 143.061 20.0051 143.554 20.8686C144.047 21.7321 144.294 22.7292 144.294 23.86V33.2968H140.254ZM130.231 33.2968V11H134.271V33.2968H130.231Z"></path>
<path fill="#4C6023" d="M26.3669 19.6657C25.7495 18.9072 24.9504 17.7967 24.2714 16.4607C24.9511 15.1247 25.7541 14.0188 26.3669 13.2603C26.9803 14.0188 27.7834 15.1247 28.4624 16.4607C27.7827 17.7967 26.9803 18.9072 26.3669 19.6657ZM29.6715 19.8597C29.1467 20.6313 28.6435 21.2704 28.238 21.7418C28.6395 22.2131 29.1467 22.8529 29.6715 23.6284C29.9202 22.339 29.9281 21.1793 29.6715 19.8597ZM24.2714 27.0229C24.9511 28.3628 25.7495 29.4694 26.3669 30.2278C26.9803 29.4694 27.7834 28.3589 28.4624 27.0229C27.7827 25.6914 26.9803 24.581 26.3669 23.8225C25.7535 24.581 24.9504 25.6914 24.2714 27.0229ZM25.7141 9.8928C26.0789 9.53881 26.6556 9.53815 27.0197 9.8928C27.353 10.2173 27.4691 10.3189 27.805 10.686C28.2328 11.1534 28.9348 11.9735 29.6715 13.0663C29.7903 12.4494 29.8611 11.8188 29.8611 11.1796C29.8611 8.14315 28.2957 5.07127 26.3669 2.6936C24.0057 5.60488 22.2914 9.34673 23.0669 13.0617C23.8469 11.9014 24.711 10.8663 25.7141 9.89215V9.8928ZM27.0197 33.5954C26.6575 33.9474 26.0756 33.948 25.7141 33.5954C25.2522 33.145 25.2063 33.1057 24.9288 32.8021C24.501 32.3347 23.799 31.5147 23.0623 30.4219C22.9435 31.0387 22.8727 31.6694 22.8727 32.3085C22.8727 35.3594 24.4518 38.4339 26.3669 40.7946C28.2748 38.4326 29.8611 35.3798 29.8611 32.3085C29.8611 31.6694 29.7903 31.0387 29.6715 30.4219C28.7734 31.7546 27.9467 32.6946 27.0197 33.596V33.5954ZM23.0623 19.8597C22.8156 21.1315 22.8018 22.356 23.0669 23.6245C23.5878 22.8483 24.0949 22.2138 24.4964 21.7424C24.0903 21.2711 23.5878 20.6313 23.0629 19.8604L23.0623 19.8597ZM35.2429 21.7418C35.2429 18.506 33.7917 15.5174 32.4152 13.4144C32.2256 14.4947 31.9081 15.5174 31.5151 16.4607C32.948 19.9285 33.03 23.3603 31.5151 27.0274C31.9035 27.9662 32.225 28.9888 32.4152 30.0692C33.7917 27.9662 35.2429 24.9776 35.2429 21.7418ZM21.218 16.4607C20.8303 15.5193 20.5114 14.4954 20.3173 13.4157C18.9408 15.518 17.4902 18.5067 17.4902 21.7418C17.4902 24.9769 18.9421 27.9668 20.3186 30.0692C20.5128 28.9882 20.8316 27.9668 21.2226 27.0274C19.7406 23.4659 19.7445 20.0262 21.218 16.4607Z"></path>
<path fill="#3A4A19" d="M26.9797 21.7464C26.2115 22.575 26.7304 21.8959 25.7667 23.0732C25.2064 23.7524 24.4611 24.7481 23.7814 25.9563C23.702 25.7806 23.5229 25.3191 23.3799 24.8629C24.137 23.6449 25.0187 22.5206 25.7535 21.7464C26.5211 20.9198 26.012 21.5812 26.9666 20.415C27.5315 19.7319 28.2722 18.7401 28.9565 17.5273C29.0037 17.6506 29.1559 18.0052 29.3534 18.6162C28.5878 19.8624 27.6686 21.0207 26.9797 21.7457V21.7464ZM30.9641 25.8239C32.1102 22.5278 31.9541 19.1511 29.9714 15.3811C29.0897 13.697 27.6686 11.8142 26.676 10.8624L26.367 10.5667L26.058 10.8624C25.9523 10.964 24.6376 12.26 23.3799 14.3007C23.5203 14.7498 23.6895 15.1857 23.7814 15.3896C24.7517 13.6662 25.8461 12.3833 26.3663 11.8188C27.5322 13.0827 28.7131 14.7786 29.5076 16.4581C30.9608 19.5313 31.0927 22.1823 30.3677 24.7344C30.5704 25.0785 30.7692 25.4443 30.9634 25.8232L30.9641 25.8239ZM21.0639 11.7205C21.2332 15.1182 22.9488 18.4556 25.127 21.0365C25.2464 20.9053 25.2451 20.9171 25.7135 20.4543C25.7312 20.4366 25.749 20.4235 25.7667 20.4143C23.1706 17.2933 21.3454 13.2682 22.1268 9.18681C22.1281 9.19337 22.1274 9.19992 22.1287 9.20648C22.8563 5.3558 25.4668 2.23475 26.367 1.25209C27.2671 2.23082 29.8789 5.33876 30.6065 9.18681C30.9175 10.8067 30.8663 12.4193 30.3684 14.1722C30.5711 14.5164 30.7699 14.8776 30.9641 15.2611C31.7612 12.9582 31.8937 10.7273 31.3525 8.42835C30.6183 5.33024 28.6527 2.21771 26.367 0C23.3359 2.94209 20.8678 7.36898 21.0639 11.7198V11.7205ZM28.9565 28.094C27.9816 29.8221 26.8872 31.1004 26.367 31.6694C25.8467 31.101 24.7524 29.8221 23.7775 28.094C22.0802 25.0563 21.4307 22.0421 22.3656 18.7486C22.1629 18.4044 21.9641 18.0432 21.7699 17.6597C20.6119 21.0253 20.7963 24.3633 22.7625 28.1026C23.6771 29.8496 25.0876 31.6917 26.058 32.6212L26.367 32.9208L26.676 32.6212C26.7816 32.5196 28.0964 31.2236 29.3541 29.1829C29.1763 28.6237 28.984 28.1648 28.9571 28.094H28.9565ZM47.7333 28.5792C45.5269 31.948 41.8286 35.1294 37.7584 35.9147C35.9319 36.2733 34.0056 36.1455 32.1601 35.6984C32.2349 35.4165 32.3057 35.13 32.3628 34.839C34.2202 35.2932 35.9719 35.3634 37.5904 35.0507C42.2406 34.1513 45.5755 30.0653 46.5025 28.8178C45.214 28.0246 40.8071 25.5912 36.2934 26.2874C35.3493 29.179 33.7215 31.5285 32.6095 32.9038C32.6298 32.4469 32.6292 31.9382 32.5918 31.4714C34.1493 29.316 36.1831 25.7406 36.1831 21.7425C36.1831 17.7443 34.1493 14.169 32.5918 12.0135C32.6285 11.5553 32.6298 11.044 32.6095 10.5851C32.8523 10.8893 33.1212 11.2374 33.4034 11.634C34.8638 8.30117 38.1901 6.3837 38.3403 6.29979L38.711 6.08805C40.2547 8.59748 41.1837 11.9217 40.4358 14.8075C40.4273 14.8383 40.4135 14.8691 40.4096 14.8999C43.1801 14.0182 45.6509 14.0844 45.8097 14.0929L46.2374 14.106C46.1994 17.8177 44.9902 21.947 42.2977 24.5272C41.8916 24.9192 41.4422 25.2765 40.9567 25.6076H40.9652C43.1834 26.0868 45.6417 27.116 47.7326 28.5785L47.7333 28.5792ZM39.3592 15.2794C39.4432 15.05 39.5179 14.8166 39.5796 14.5872C40.3695 11.5501 38.9577 8.3936 38.3974 7.30474C37.4448 7.93931 34.9694 9.79975 34.0076 12.5111C34.8237 13.7632 35.6661 15.3188 36.2533 17.0783C37.2237 16.2851 38.2957 15.7075 39.3592 15.2794ZM39.6374 25.3873C40.405 24.9599 41.0978 24.4571 41.6889 23.8927C44.693 21.0096 45.2363 16.4162 45.3334 14.9746C42.3102 15.0507 38.8264 15.9704 36.5361 18.0032C37.2237 20.5166 37.223 22.8798 36.5715 25.3604C37.6258 25.2326 38.6493 25.2588 39.6374 25.3866V25.3873ZM20.3711 34.839C20.4282 35.13 20.4991 35.4165 20.5739 35.6984C18.7283 36.1455 16.8021 36.2726 14.9749 35.9147C10.9047 35.1294 7.20572 31.948 5 28.5792C7.08434 27.1212 9.54133 26.0894 11.7674 25.6082H11.7759C11.2904 25.2778 10.8404 24.9206 10.4349 24.5279C7.74763 21.9536 6.5339 17.8262 6.49519 14.1067L6.92295 14.0936C7.08172 14.085 9.55249 14.0188 12.3231 14.9005C12.3185 14.8697 12.3054 14.8389 12.2968 14.8081C11.5489 11.9224 12.4779 8.59813 14.0217 6.08871C16.7024 7.6194 18.4816 9.71453 19.3247 11.6386C19.6068 11.2419 19.8804 10.8893 20.1231 10.5851C20.1028 11.0459 20.1041 11.5494 20.1408 12.0135C18.5833 14.169 16.5495 17.7443 16.5495 21.7425C16.5495 25.7406 18.5833 29.316 20.1408 31.4714C20.1041 31.9388 20.1028 32.4475 20.1231 32.9044C19.0111 31.5291 17.3834 29.1796 16.4393 26.288C11.9262 25.5918 7.51866 28.0252 6.23014 28.8184C7.15651 30.0659 10.492 34.1526 15.1422 35.0514C16.7614 35.364 18.5125 35.2939 20.3698 34.8396L20.3711 34.839ZM13.1537 14.5872C13.2153 14.8166 13.2901 15.05 13.3741 15.2794C14.4376 15.7069 15.5096 16.289 16.48 17.0822C17.0665 15.3234 17.9095 13.7625 18.7257 12.5111C17.7639 9.79975 15.2892 7.93996 14.3359 7.30474C13.7756 8.3936 12.3638 11.5501 13.1537 14.5872ZM13.0959 25.3873C14.084 25.2595 15.1075 25.2332 16.1618 25.3611C15.5103 22.8812 15.5096 20.5173 16.1972 18.0039C13.9088 15.973 10.4224 15.0513 7.39991 14.9753C7.49701 16.4168 8.03958 21.0102 11.0444 23.8933C11.6355 24.4577 12.3283 24.9599 13.0959 25.388V25.3873ZM30.9641 28.2265C30.2627 26.1687 28.9886 24.0769 27.6069 22.4518C27.4239 22.6432 27.2973 22.7605 27.0204 23.0339C27.0027 23.0516 26.985 23.0647 26.9673 23.0739C29.0936 25.6502 30.8014 28.9699 30.8014 32.3092C30.8014 35.9062 28.7734 39.6172 26.3676 42.2322C25.5626 41.357 23.391 38.7742 22.4194 35.4827V35.4919C21.7751 33.3423 21.7909 31.3442 22.3669 29.316C22.1642 28.9718 21.9654 28.606 21.7712 28.2271C20.8901 30.787 20.8573 33.0998 21.4845 35.4565C22.2764 38.4045 24.2124 41.4219 26.3683 43.4836C28.2978 41.6389 30.0725 39.0063 30.9785 36.3559C31.8891 33.5849 31.9469 31.1023 30.9654 28.2271L30.9641 28.2265Z"></path>
<path fill="#4C6023" d="M14.0619 14.3539C13.5278 12.2994 14.1459 10.1217 14.7061 8.74634C15.6857 9.53103 16.9781 10.8008 17.6755 12.4095C17.0975 13.3352 16.5195 14.4063 16.0301 15.5968C15.4081 15.191 14.7639 14.856 14.1288 14.5741C14.1026 14.4994 14.0803 14.424 14.0625 14.3539H14.0619ZM14.9751 24.3385C14.6235 22.3869 14.6464 20.459 15.1431 18.3475C12.9813 16.6811 10.1668 16.1474 8.45049 15.9803C8.71095 17.8761 9.47856 21.0896 11.6974 23.2142C12.156 23.6547 12.6946 24.0605 13.2943 24.4178C13.7916 24.3726 14.26 24.3267 14.9751 24.3385ZM37.59 18.3475C38.0859 20.4583 38.1089 22.3863 37.7579 24.3385C38.4789 24.3267 38.969 24.3752 39.4388 24.4178C40.0391 24.0605 40.5771 23.6554 41.0357 23.2142C43.2545 21.0896 44.0221 17.8761 44.2826 15.9803C42.5663 16.1481 39.7517 16.6811 37.59 18.3475ZM35.0575 12.4095C35.6355 13.3352 36.2135 14.4063 36.7029 15.5968C37.3249 15.191 37.9692 14.856 38.6042 14.5741C38.6305 14.4994 38.6528 14.424 38.6705 14.3539C39.2046 12.2994 38.5865 10.1217 38.0262 8.74634C37.0467 9.53103 35.7543 10.8008 35.0569 12.4095H35.0575ZM37.4135 34.1291C40.4111 33.5515 43.1167 31.4217 45.0856 29.0905C42.6647 27.7978 39.7005 26.8859 36.9903 27.1462C35.98 29.9231 34.4185 32.1585 33.3419 33.4938C33.1923 33.6787 33.0467 33.8511 32.9181 34.0052C34.5458 34.3578 36.0416 34.3932 37.4135 34.1284V34.1291ZM7.64746 29.0905C8.48133 30.0778 9.84924 31.497 11.6134 32.6082C14.1419 34.1926 16.6599 34.6889 19.815 34.0058C19.687 33.8518 19.5414 33.6793 19.3912 33.4945C18.3145 32.1585 16.7531 29.9237 15.7427 27.1468C13.0325 26.8866 10.0677 27.7985 7.64746 29.0912V29.0905Z"></path>
</g>
<defs>
<clipPath id="clip0_99_52">
<rect fill="white" height="43.4836" width="150"></rect>
</clipPath>
</defs>
</svg>
