<svg xml:space="preserve" style="enable-background:new 0 0 100 100;" viewBox="0 0 100 100" y="0px" x="0px" xmlns:xlink="http://www.w3.org/1999/xlink" xmlns="http://www.w3.org/2000/svg"><path d="M50,99C23,99,1,77,1,50S23,1,50,1s49,22,49,49S77,99,50,99z M50,2.7C23.9,2.7,2.7,23.9,2.7,50S23.9,97.3,50,97.3 S97.3,76.1,97.3,50S76.1,2.7,50,2.7z"></path><path d="M67.7,64.4H33.4c-0.7,0-1.3-0.6-1.3-1.3s0.6-1.3,1.3-1.3h34.3c0.7,0,1.3,0.6,1.3,1.3S68.4,64.4,67.7,64.4z"></path><path d="M53.8,74c-0.4,0-0.8-0.2-1.1-0.6c-0.4-0.6-0.3-1.4,0.3-1.8c4.6-3.2,7.5-10.5,7.5-18.7c0-8.1-3-15.5-7.5-18.7 c-0.6-0.4-0.7-1.2-0.3-1.8c0.4-0.6,1.2-0.7,1.8-0.3c5.2,3.7,8.6,11.8,8.6,20.8c0,9-3.4,17.1-8.6,20.8C54.3,74,54,74,53.8,74z"></path><path d="M67.7,44.2H48c-0.7,0-1.3-0.6-1.3-1.3s0.6-1.3,1.3-1.3h19.8c0.7,0,1.3,0.6,1.3,1.3S68.4,44.2,67.7,44.2z"></path><path d="M70.5,54.3H31c-0.7,0-1.3-0.6-1.3-1.3s0.6-1.3,1.3-1.3h39.4c0.7,0,1.3,0.6,1.3,1.3S71.2,54.3,70.5,54.3z"></path><path d="M50.6,74.2c-0.7,0-1.3-0.6-1.3-1.3V33.1c0-0.7,0.6-1.3,1.3-1.3s1.3,0.6,1.3,1.3v39.8C51.9,73.6,51.3,74.2,50.6,74.2z"></path><path d="M47.3,74c-0.3,0-0.5-0.1-0.7-0.2C41.3,70.1,38,61.9,38,53c0-0.8,0-1.6,0.1-2.5c0-0.7,0.7-1.3,1.4-1.2c0.7,0,1.3,0.7,1.2,1.4 c-0.1,0.7-0.1,1.5-0.1,2.3c0,8.1,3,15.5,7.5,18.7c0.6,0.4,0.7,1.2,0.3,1.8C48.1,73.8,47.7,74,47.3,74z"></path><path d="M32.3,48.9c-0.7,0-1.3-0.6-1.3-1.3s0.6-1.3,1.3-1.3c5,0,8.6-1.7,10.8-5.1c2.8-4.3,2.5-10.4,1.5-14.3 c-1.8,1.9-4.5,2.9-7.2,3.8c-5.7,2-11,3.9-9.5,13.3c0.1,0.7-0.4,1.4-1.1,1.5c-0.7,0.1-1.4-0.4-1.5-1.1c-1.8-11.5,5.4-14.1,11.2-16.2 c3.4-1.2,6.4-2.3,7.2-4.8c0.2-0.5,0.6-0.9,1.2-0.9c0.5,0,1,0.3,1.3,0.7c2,4.2,3,13.3-0.8,19.4C42.7,46.8,38.2,48.9,32.3,48.9z"></path><path d="M50.6,77.4c-13.5,0-24.4-11-24.4-24.4c0-7.9,4.5-11.6,8.9-15.2c2.9-2.4,5.6-4.6,7.1-8c0.3-0.7,1.1-1,1.7-0.7 c0.7,0.3,1,1.1,0.7,1.7c-1.8,4-4.8,6.5-7.8,9c-4.1,3.4-7.9,6.6-7.9,13.2c0,12,9.8,21.8,21.8,21.8S72.4,65,72.4,53 s-9.8-21.8-21.8-21.8c-0.7,0-1.3-0.6-1.3-1.3c0-0.7,0.6-1.3,1.3-1.3C64,28.6,75,39.5,75,53S64,77.4,50.6,77.4z"></path></svg>