<svg xml:space="preserve" style="enable-background:new 0 0 100 100;" viewBox="0 0 100 100" y="0px" x="0px" xmlns:xlink="http://www.w3.org/1999/xlink" xmlns="http://www.w3.org/2000/svg">
<path d="M50,99C23,99,1,77,1,50C1,23,23,1,50,1c27,0,49,22,49,49C99,77,77,99,50,99z M50,2.7C23.9,2.7,2.7,23.9,2.7,50	c0,26.1,21.2,47.3,47.3,47.3S97.3,76.1,97.3,50C97.3,23.9,76.1,2.7,50,2.7z"></path>
<path d="M26.8,76c-0.3,0-0.6-0.1-0.8-0.3c-0.4-0.4-0.4-1.1,0-1.6L74.1,26c0.4-0.4,1.1-0.4,1.6,0s0.4,1.1,0,1.6L27.6,75.7	C27.4,75.9,27.1,76,26.8,76z"></path>
<path d="M39.8,58.5c-0.6,0-1.1-0.5-1.1-1.1v-6.6c0-4.3,3.2-7.8,7.3-8.3v-3c0-0.6,0.5-1.1,1.1-1.1h7.6c0.6,0,1.1,0.5,1.1,1.1v3.1	c0,0.6-0.5,1.1-1.1,1.1s-1.1-0.5-1.1-1.1v-2h-5.3v2.9c0,0.6-0.5,1.1-1.1,1.1c-3.4,0-6.2,2.8-6.2,6.2v6.6	C40.9,58,40.4,58.5,39.8,58.5z"></path>
<path d="M54.2,75.2h-6.7c-4.8,0-8.8-3.9-8.8-8.7c0-0.6,0.5-1.1,1.1-1.1c0.6,0,1.1,0.5,1.1,1.1c0.1,3.6,3,6.5,6.6,6.5h6.7	c3.6,0,6.6-3,6.6-6.6V50.8c0-1.5-0.5-2.9-1.4-4c-0.4-0.5-0.3-1.2,0.1-1.6c0.5-0.4,1.2-0.3,1.6,0.1c1.3,1.5,2,3.4,2,5.4v15.6	C63.1,71.3,59.1,75.2,54.2,75.2z"></path>
<path d="M54.2,71.5h-3.4c-0.6,0-1.1-0.5-1.1-1.1s0.5-1.1,1.1-1.1h3.4c1.5,0,2.8-1.3,2.8-2.8v-6.9c0-0.6,0.5-1.1,1.1-1.1	c0.6,0,1.1,0.5,1.1,1.1v6.9C59.3,69.2,57,71.4,54.2,71.5z"></path>
<path d="M55.6,40.5h-9.5c-0.6,0-1.1-0.5-1.1-1.1v-3.8c0-1.1,0.9-2,2-2h7.7c1.1,0,2,0.9,2,2l0,3.8c0,0.3-0.1,0.6-0.3,0.8	C56.2,40.4,55.9,40.5,55.6,40.5z M47.2,38.3h7.3l0-2.5h-7.3V38.3z"></path>
<path d="M52.6,35.8h-3.4c-0.6,0-1.1-0.5-1.1-1.1v-3.9c0-0.6,0.5-1.1,1.1-1.1h3.4c0.6,0,1.1,0.5,1.1,1.1v3.9	C53.7,35.3,53.2,35.8,52.6,35.8z M50.3,33.6h1.2v-1.7h-1.2V33.6z"></path>
<path d="M40.6,33.3c-1.1,0-1.9-0.9-1.9-1.9v-1c0-1.1,0.7-2.1,1.8-2.5c2.9-1,5.9-1.5,8.9-1.5H55c1.5,0,2.6,1.2,2.7,2.6	c0,1.5-1.1,2.7-2.6,2.8l-5.7,0c-2.8,0-5.5,0.4-8.2,1.3C41,33.3,40.8,33.3,40.6,33.3z M55,28.7h-5.6c-2.8,0-5.5,0.4-8.2,1.3	c-0.2,0.1-0.3,0.2-0.3,0.4V31c2.7-0.9,5.6-1.3,8.5-1.3H55c0.1,0,0.2-0.1,0.3-0.1c0-0.1,0.1-0.2,0.1-0.3C55.4,28.9,55.2,28.7,55,28.7	z"></path>
</svg>