<svg xmlns="http://www.w3.org/2000/svg" fill="none" viewBox="0 0 104 67" height="67" width="104">
<path stroke-width="0.5" stroke="#2F3E10" fill="#2F3E10" d="M52.1943 57.012C52.006 57.012 51.8176 56.9366 51.6857 56.7954L32.0858 36.7716C29.9195 34.3887 28.7422 31.3371 28.7422 28.1631C28.7422 21.0803 34.4875 15.3162 41.5702 15.3162C45.8274 15.3162 49.7832 17.426 52.1661 20.892C54.5395 17.4165 58.5047 15.2974 62.7525 15.2974C66.1902 15.2974 69.4114 16.6254 71.8319 19.0459C74.2619 21.4665 75.5993 24.6876 75.5993 28.116C75.5993 31.29 74.422 34.3416 72.284 36.7151C72.2652 36.7339 52.7029 56.8048 52.7029 56.8048C52.571 56.9366 52.3921 57.0214 52.1943 57.0214V57.012ZM41.5702 16.7196C38.5092 16.7196 35.6366 17.9157 33.4891 20.0725C31.3323 22.2294 30.1455 25.102 30.155 28.1536C30.155 30.9792 31.2099 33.6917 33.1218 35.8015L52.1943 55.2884L71.2386 35.745C73.1411 33.6352 74.1771 30.9227 74.1771 28.1065C74.1771 25.0549 72.981 22.1917 70.8242 20.0349C68.6673 17.878 65.8041 16.7007 62.7525 16.7007C58.6083 16.7007 54.7938 18.9518 52.7783 22.5685C52.6558 22.7945 52.4204 22.9264 52.1661 22.9264C51.9118 22.9264 51.6763 22.7851 51.5444 22.5685C49.5195 18.9612 45.7049 16.7196 41.5796 16.7196H41.5702Z"></path>
<path stroke-width="0.5" stroke="#2F3E10" fill="#2F3E10" d="M30.9647 21.7963C30.7104 21.7963 30.4561 21.655 30.3337 21.4101L25.6904 12.3495C25.2665 11.5113 25.1817 10.56 25.4737 9.66521C25.7657 8.77045 26.3779 8.04524 27.2162 7.61198C28.0638 7.17873 29.0245 7.10339 29.9287 7.39536C30.8329 7.68734 31.5675 8.31837 32.0008 9.15662L35.9283 16.8233C36.1072 17.1718 35.966 17.5956 35.6175 17.7746C35.269 17.9535 34.8452 17.8122 34.6662 17.4638L30.7387 9.79707C30.475 9.28847 30.0323 8.91174 29.486 8.73279C28.9397 8.55384 28.3558 8.60093 27.8472 8.86465C27.348 9.11895 26.9713 9.56162 26.8017 10.0891C26.6322 10.6259 26.6793 11.191 26.9336 11.6996L31.5769 20.7602C31.7559 21.1087 31.6146 21.5326 31.2661 21.7115C31.1625 21.768 31.0495 21.7869 30.9459 21.7869L30.9647 21.7963Z"></path>
<path stroke-width="0.5" stroke="#2F3E10" fill="#2F3E10" d="M25.3235 25.1774C25.0692 25.1774 24.8149 25.0362 24.6924 24.7913L17.1953 10.1926C16.1875 8.22411 16.9693 5.81297 18.9283 4.80519C19.8796 4.31542 20.9627 4.23065 21.9799 4.5603C22.9971 4.88994 23.8259 5.59634 24.3157 6.53819L27.1224 12.0103C27.3014 12.3588 27.1601 12.7827 26.8116 12.9616C26.4631 13.1406 26.0393 12.9993 25.8603 12.6508L23.0536 7.17864C22.7428 6.56644 22.2059 6.11435 21.5467 5.89772C20.8874 5.6811 20.181 5.73762 19.5688 6.05785C18.2973 6.70773 17.7887 8.2712 18.448 9.5427L25.9451 24.1414C26.124 24.4899 25.9828 24.9137 25.6437 25.0927C25.5401 25.1492 25.4271 25.168 25.3235 25.168V25.1774Z"></path>
<path stroke-width="0.5" stroke="#2F3E10" fill="#2F3E10" d="M19.4369 28.2008C19.1826 28.2008 18.9283 28.0595 18.8059 27.8146L9.2649 9.23187C8.77514 8.2806 8.69036 7.19746 9.02001 6.18026C9.34966 5.16306 10.0561 4.33423 10.9979 3.84447C12.957 2.83669 15.3775 3.61842 16.3853 5.57748L19.5217 11.6995C19.7006 12.048 19.5594 12.4718 19.2203 12.6508C18.8718 12.8297 18.448 12.6885 18.269 12.34L15.1327 6.21794C14.4828 4.94644 12.9193 4.44726 11.6478 5.09714C10.3763 5.74701 9.8771 7.31049 10.527 8.58199L20.0679 27.1647C20.2469 27.5132 20.1056 27.9371 19.7665 28.116C19.6629 28.1725 19.5499 28.1914 19.4463 28.1914L19.4369 28.2008Z"></path>
<path stroke-width="0.5" stroke="#2F3E10" fill="#2F3E10" d="M18.8905 41.6691C18.6362 41.6691 18.3819 41.5278 18.2595 41.2829L5.05468 15.5138C4.04689 13.5454 4.82863 11.1342 6.78768 10.1265C8.75615 9.11867 11.1673 9.90041 12.1751 11.8595L14.6616 16.71C14.8405 17.0585 14.6992 17.4823 14.3508 17.6613C14.0023 17.8402 13.5785 17.6989 13.3995 17.3505L10.913 12.4999C10.6022 11.8877 10.0653 11.4356 9.40603 11.219C8.74673 11.0024 8.04037 11.0589 7.42816 11.3791C6.15666 12.029 5.65748 13.5925 6.30736 14.864L19.5121 40.633C19.6911 40.9815 19.5498 41.4054 19.2013 41.5843C19.0977 41.6408 18.9847 41.6597 18.8811 41.6597L18.8905 41.6691Z"></path>
<path stroke-width="0.5" stroke="#2F3E10" fill="#2F3E10" d="M52.1942 65.7618H33.1782C32.9145 65.7618 32.6696 65.6111 32.5472 65.3757L27.659 55.8441C27.1692 54.8834 26.2744 54.2241 25.2761 54.0923C20.2937 53.4047 15.3678 49.4584 10.602 45.6439C8.63356 44.0615 6.59915 42.4321 4.64009 41.1135C4.21626 40.765 3.81127 40.4825 3.40627 40.2C2.17244 39.3429 0.769081 38.3633 1.34361 36.8846C1.36245 36.8375 1.38129 36.7904 1.40955 36.7528C2.02175 35.8298 2.93535 35.227 4.06558 35.0103C5.24289 34.7843 7.1831 34.8785 9.76377 36.6492C12.0619 38.1655 16.4227 40.3412 18.8997 40.3977C19.3613 40.4448 19.9358 40.3695 20.6045 40.2847C23.6938 39.8986 28.8551 39.2675 34.8453 46.5104C35.0902 46.8117 35.0525 47.2544 34.7511 47.5087C34.4497 47.7536 34.007 47.7159 33.7527 47.4145C28.2617 40.7651 23.7597 41.3207 20.774 41.6881C20.0205 41.7822 19.3707 41.8576 18.815 41.8105C15.9518 41.754 11.2519 39.3334 8.97262 37.8265C7.26787 36.6586 5.61964 36.1594 4.33872 36.4043C3.62291 36.5456 3.03895 36.9129 2.64337 37.4686C2.56802 37.8641 3.21791 38.3633 4.21628 39.0509C4.64011 39.3429 5.08276 39.6537 5.48775 40.0022C7.43739 41.3113 9.49065 42.9596 11.4874 44.5607C16.1025 48.2622 20.8682 52.0861 25.4645 52.7172C26.9149 52.9149 28.2053 53.8568 28.9116 55.2225L33.602 64.3773H51.4878V56.3339C51.4878 55.9477 51.8081 55.6275 52.1942 55.6275C52.5804 55.6275 52.9006 55.9477 52.9006 56.3339V65.0837C52.9006 65.4698 52.5804 65.7901 52.1942 65.7901V65.7618Z"></path>
<path stroke-width="0.5" stroke="#2F3E10" fill="#2F3E10" d="M73.3671 21.7961C73.2541 21.7961 73.1505 21.7679 73.0469 21.7208C72.6984 21.5418 72.5665 21.118 72.7361 20.7695L77.3794 11.7089C77.6337 11.2097 77.6808 10.6352 77.5112 10.0983C77.3417 9.56148 76.965 9.12823 76.4658 8.87393C75.9572 8.61021 75.3733 8.56312 74.827 8.74207C74.2807 8.92102 73.838 9.29776 73.5743 9.80636L69.6374 17.473C69.4584 17.8215 69.0346 17.9534 68.6861 17.7839C68.3376 17.6049 68.2058 17.1811 68.3753 16.8326L72.3028 9.1659C72.736 8.31823 73.4707 7.69661 74.3749 7.40464C75.2791 7.11267 76.2398 7.18801 77.0874 7.62126C77.9257 8.05451 78.5473 8.77975 78.8299 9.67451C79.1218 10.5693 79.037 11.5205 78.6132 12.3588L73.9699 21.4194C73.8475 21.6643 73.5931 21.8056 73.3388 21.8056L73.3671 21.7961Z"></path>
<path stroke-width="0.5" stroke="#2F3E10" fill="#2F3E10" d="M79.0084 25.1773C78.8953 25.1773 78.7917 25.149 78.6881 25.1019C78.3396 24.923 78.2078 24.4992 78.3867 24.1507L85.8839 9.55197C86.5338 8.28047 86.0346 6.717 84.7631 6.06712C84.1509 5.75631 83.4445 5.6998 82.7852 5.90701C82.1259 6.12363 81.589 6.57572 81.2688 7.18793L78.4621 12.6601C78.2831 13.0086 77.8593 13.1404 77.5108 12.9709C77.1623 12.7919 77.0305 12.3681 77.2 12.0196L80.0067 6.54746C80.4965 5.59619 81.3253 4.89923 82.3425 4.56958C83.3597 4.23993 84.4523 4.32469 85.3941 4.81445C87.3626 5.82224 88.1349 8.2428 87.1271 10.2018L79.63 24.8006C79.5075 25.0454 79.2532 25.1867 78.9989 25.1867L79.0084 25.1773Z"></path>
<path stroke-width="0.5" stroke="#2F3E10" fill="#2F3E10" d="M84.8956 28.2006C84.7826 28.2006 84.679 28.1724 84.5754 28.1253C84.2269 27.9463 84.0951 27.5225 84.274 27.174L93.815 8.59128C94.4649 7.31978 93.9657 5.7563 92.6942 5.10643C92.082 4.79561 91.385 4.73911 90.7163 4.94631C90.057 5.16294 89.5201 5.61503 89.1999 6.22723L86.0635 12.3493C85.8846 12.6978 85.4607 12.839 85.1123 12.6601C84.7638 12.4811 84.6319 12.0573 84.8015 11.7088L87.9378 5.58678C88.4276 4.63551 89.2564 3.93853 90.2736 3.60888C91.2908 3.27924 92.3739 3.364 93.3252 3.85376C94.2765 4.34352 94.9735 5.17236 95.3031 6.18956C95.6328 7.20676 95.548 8.28989 95.0582 9.24116L85.5172 27.8239C85.3948 28.0688 85.1405 28.2101 84.8862 28.2101L84.8956 28.2006Z"></path>
<path stroke-width="0.5" stroke="#2F3E10" fill="#2F3E10" d="M85.4414 41.6692C85.3284 41.6692 85.2248 41.6409 85.1212 41.5939C84.7727 41.4149 84.6408 40.9911 84.8103 40.6426L98.0151 14.8735C98.3259 14.2613 98.3824 13.5643 98.1752 12.8956C97.9586 12.2363 97.5065 11.6995 96.8943 11.3887C96.2821 11.0778 95.5757 11.0213 94.9164 11.2285C94.2571 11.4357 93.7203 11.8973 93.4095 12.5095L90.923 17.36C90.744 17.7085 90.3202 17.8403 89.9717 17.6708C89.6232 17.4919 89.4914 17.068 89.6609 16.7195L92.1474 11.869C92.6277 10.9177 93.466 10.2208 94.4832 9.89111C95.5004 9.56146 96.5835 9.64622 97.5348 10.136C99.5032 11.1438 100.276 13.5549 99.2678 15.5234L86.063 41.2925C85.9406 41.5373 85.6863 41.6786 85.432 41.6786L85.4414 41.6692Z"></path>
<path stroke-width="0.5" stroke="#2F3E10" fill="#2F3E10" d="M71.1536 65.7617H52.1942C51.808 65.7617 51.4878 65.4415 51.4878 65.0553C51.4878 64.6692 51.808 64.349 52.1942 64.349H70.7204L75.4108 55.1942C76.1078 53.819 77.3981 52.8866 78.8486 52.6888C83.4448 52.0578 88.2106 48.2339 92.8257 44.5324C94.813 42.9407 96.8756 41.283 98.8818 39.9361C99.2302 39.6347 99.6729 39.3334 100.097 39.032C101.086 38.3444 101.745 37.8452 101.67 37.4497C101.274 36.894 100.69 36.5266 99.9743 36.3854C98.6934 36.1311 97.0452 36.6397 95.3498 37.7981C93.0611 39.3145 88.3613 41.7257 85.451 41.7916C84.9424 41.8387 84.2925 41.7633 83.539 41.6692C80.5533 41.3018 76.0513 40.7461 70.5603 47.3956C70.3154 47.697 69.8633 47.7347 69.5619 47.4898C69.2605 47.2449 69.2229 46.7928 69.4677 46.4914C75.4485 39.2486 80.6193 39.8796 83.7085 40.2658C84.3773 40.3506 84.9612 40.4165 85.3662 40.3788C87.8998 40.3223 92.2606 38.1466 94.5681 36.6208C97.1393 34.8596 99.0796 34.7654 100.257 34.9914C101.387 35.208 102.301 35.8108 102.913 36.7338C102.941 36.7715 102.96 36.8186 102.979 36.8657C103.553 38.3444 102.15 39.3145 100.916 40.181C100.521 40.4636 100.106 40.7461 99.7389 41.0475C97.7233 42.4132 95.6889 44.0426 93.7204 45.6249C88.9547 49.4394 84.0288 53.3952 79.0464 54.0733C78.048 54.2146 77.1627 54.8645 76.6729 55.8252L71.7847 65.3567C71.6623 65.5922 71.4174 65.7429 71.1536 65.7429V65.7617Z"></path>
<path stroke-width="0.5" stroke="#2F3E10" fill="#2F3E10" d="M53.5125 8.29935C53.1264 8.29935 52.8062 7.97912 52.8062 7.59296V1.70639C52.8062 1.32023 53.1264 1 53.5125 1C53.8987 1 54.2189 1.32023 54.2189 1.70639V7.59296C54.2189 7.97912 53.8987 8.29935 53.5125 8.29935Z"></path>
<path stroke-width="0.5" stroke="#2F3E10" fill="#2F3E10" d="M42.1728 9.36358C41.9279 9.36358 41.6925 9.24114 41.5606 9.0151L38.5373 3.81607C38.3395 3.47701 38.4525 3.04375 38.7916 2.85538C39.1306 2.65759 39.5639 2.77062 39.7522 3.10968L42.7756 8.30871C42.9734 8.64778 42.8604 9.08102 42.5213 9.26939C42.4083 9.33532 42.2858 9.36358 42.1634 9.36358H42.1728Z"></path>
<path stroke-width="0.5" stroke="#2F3E10" fill="#2F3E10" d="M64.8526 9.36358C64.7302 9.36358 64.6077 9.33532 64.4947 9.26939C64.1556 9.0716 64.0426 8.63836 64.2404 8.30871L67.2638 3.10968C67.4615 2.77062 67.8948 2.65759 68.2339 2.85538C68.5729 3.05317 68.6859 3.48643 68.4881 3.81607L65.4648 9.0151C65.333 9.24114 65.0975 9.36358 64.8526 9.36358Z"></path>
</svg>
