<svg xmlns="http://www.w3.org/2000/svg" fill="none" viewBox="0 0 60 67" height="67" width="60">
<path stroke-width="0.5" stroke="#2F3E10" fill="#2F3E10" d="M43.0447 52.84H22.3747C22.0147 52.84 21.7147 52.57 21.6747 52.21L16.3447 6.54999V1.70999C16.3447 1.31999 16.6547 1 17.0447 1H48.3747C48.7647 1 49.0847 1.31999 49.0847 1.70999V6.47L43.7447 52.21C43.7047 52.57 43.4047 52.84 43.0447 52.84ZM23.0147 51.43H42.4247L47.6847 6.39999V2.42999H17.7647V6.47998L23.0247 51.43H23.0147Z"></path>
<path stroke-width="0.5" stroke="#2F3E10" fill="#2F3E10" d="M44.4648 7.52008H20.8848C20.4948 7.52008 20.1748 7.20009 20.1748 6.81009C20.1748 6.42009 20.4948 6.1001 20.8848 6.1001H44.4648C44.8548 6.1001 45.1748 6.42009 45.1748 6.81009C45.1748 7.20009 44.8548 7.52008 44.4648 7.52008Z"></path>
<path stroke-width="0.5" stroke="#2F3E10" fill="#2F3E10" d="M39.065 66.0899H26.355C23.745 66.0899 21.625 63.9699 21.625 61.3599V52.3799C21.625 51.9899 21.945 51.6699 22.335 51.6699C22.725 51.6699 23.045 51.9899 23.045 52.3799V61.3599C23.045 63.1899 24.535 64.6699 26.355 64.6699H39.065C40.895 64.6699 42.375 63.1799 42.375 61.3599V52.3799C42.375 51.9899 42.695 51.6699 43.085 51.6699C43.475 51.6699 43.795 51.9899 43.795 52.3799V61.3599C43.795 63.9699 41.675 66.0899 39.065 66.0899Z"></path>
<path stroke-width="0.5" stroke="#2F3E10" fill="#2F3E10" d="M36.4649 66.0901C36.0749 66.0901 35.7549 65.7701 35.7549 65.3801V61.0001C35.7549 60.0101 34.9549 59.2101 33.9649 59.2101H31.4649C30.4749 59.2101 29.6749 60.0101 29.6749 61.0001V65.3801C29.6749 65.7701 29.3549 66.0901 28.9649 66.0901C28.5749 66.0901 28.2549 65.7701 28.2549 65.3801V61.0001C28.2549 59.2301 29.6949 57.79 31.4649 57.79H33.9649C35.7349 57.79 37.1749 59.2301 37.1749 61.0001V65.3801C37.1749 65.7701 36.8549 66.0901 36.4649 66.0901Z"></path>
<path stroke-width="0.5" stroke="#2F3E10" fill="#2F3E10" d="M16.965 64.7099C12.405 64.7099 6.90497 63.5099 3.70497 58.5399C-2.20503 49.3699 2.26496 30.9999 2.45496 30.2199C2.54496 29.8599 2.90496 29.6299 3.27496 29.6899C3.67496 29.7599 13.095 31.5499 20.745 35.8399C21.085 36.0299 21.205 36.4599 21.015 36.7999C20.825 37.1399 20.395 37.2599 20.055 37.0699C13.745 33.5299 5.97496 31.6999 3.68496 31.2099C2.94496 34.5899 -0.0650339 50.0399 4.90497 57.7599C9.28497 64.5699 18.705 63.4899 22.555 62.7099C22.935 62.6299 23.315 62.8799 23.385 63.2599C23.465 63.6399 23.215 64.0199 22.835 64.0999C21.425 64.3899 19.325 64.7099 16.965 64.7099Z"></path>
<path stroke-width="0.5" stroke="#2F3E10" fill="#2F3E10" d="M18.2949 55.0099C18.2349 55.0099 18.1849 55.0099 18.1249 54.9899L10.3149 53.0699C9.93488 52.9799 9.70488 52.5899 9.79488 52.2099C9.88488 51.8299 10.2749 51.5999 10.6549 51.6899L18.4649 53.6099C18.8449 53.6999 19.0749 54.0899 18.9849 54.4699C18.9049 54.7899 18.6149 55.0099 18.2949 55.0099Z"></path>
<path stroke-width="0.5" stroke="#2F3E10" fill="#2F3E10" d="M22.2152 60.59C21.9852 60.59 21.7552 60.48 21.6252 60.27L7.87517 39.04C7.66517 38.71 7.75518 38.27 8.08518 38.06C8.41518 37.85 8.85518 37.94 9.06518 38.27L22.8152 59.5C23.0252 59.83 22.9352 60.27 22.6052 60.48C22.4852 60.56 22.3552 60.59 22.2252 60.59H22.2152Z"></path>
<path stroke-width="0.5" stroke="#2F3E10" fill="#2F3E10" d="M13.8252 47.9098C13.8252 47.9098 13.7252 47.9098 13.6752 47.8898L8.83516 46.8398C8.45516 46.7598 8.21516 46.3798 8.29516 45.9998C8.37516 45.6198 8.75516 45.3698 9.13516 45.4598L13.9752 46.5098C14.3552 46.5898 14.5952 46.9698 14.5152 47.3498C14.4452 47.6798 14.1452 47.9098 13.8252 47.9098Z"></path>
<path stroke-width="0.5" stroke="#2F3E10" fill="#2F3E10" d="M14.0149 47.7898C14.0149 47.7898 13.9149 47.7898 13.8649 47.7698C13.4849 47.6898 13.2449 47.3098 13.3249 46.9298L14.3749 42.0898C14.4549 41.7098 14.8349 41.4698 15.2149 41.5498C15.5949 41.6298 15.8349 42.0098 15.7549 42.3898L14.7049 47.2298C14.6349 47.5598 14.3349 47.7898 14.0149 47.7898Z"></path>
<path stroke-width="0.5" stroke="#2F3E10" fill="#2F3E10" d="M47.4049 64.59C44.9249 64.59 42.9849 64.11 42.8049 64.06C42.4249 63.96 42.1949 63.58 42.2949 63.2C42.3949 62.82 42.7749 62.6 43.1549 62.69C43.2449 62.71 52.5349 65.01 56.0349 59.15C59.1749 53.89 56.9549 43.74 56.2949 41.08C54.3549 41.55 48.5349 43.13 44.2949 46.13C43.9749 46.36 43.5349 46.28 43.3049 45.96C43.0749 45.64 43.1549 45.2 43.4749 44.97C48.8449 41.16 56.3449 39.6 56.6649 39.54C57.0349 39.47 57.3849 39.68 57.4849 40.04C57.6349 40.58 61.1849 53.3 57.2549 59.87C54.9449 63.73 50.7049 64.58 47.4149 64.58L47.4049 64.59Z"></path>
<path stroke-width="0.5" stroke="#2F3E10" fill="#2F3E10" d="M42.9748 64.09C42.8548 64.09 42.7248 64.06 42.6148 63.99C42.2748 63.79 42.1648 63.35 42.3748 63.02L52.3448 46.33C52.5448 46 52.9848 45.89 53.3148 46.08C53.6548 46.28 53.7648 46.72 53.5548 47.05L43.5848 63.74C43.4548 63.96 43.2148 64.08 42.9748 64.08V64.09Z"></path>
<path stroke-width="0.5" stroke="#2F3E10" fill="#2F3E10" d="M47.0746 56.7201C46.7546 56.7201 46.4646 56.5101 46.3846 56.1801L45.2646 51.7401C45.1646 51.3601 45.3946 50.9801 45.7746 50.8801C46.1546 50.7801 46.5346 51.0101 46.6346 51.3901L47.7546 55.8301C47.8546 56.2101 47.6246 56.5901 47.2446 56.6901C47.1846 56.7001 47.1246 56.7101 47.0746 56.7101V56.7201Z"></path>
<path stroke-width="0.5" stroke="#2F3E10" fill="#2F3E10" d="M47.5244 56.9902C47.2044 56.9902 46.9144 56.7802 46.8344 56.4502C46.7344 56.0702 46.9644 55.6902 47.3444 55.5902L51.7844 54.4702C52.1644 54.3702 52.5444 54.6002 52.6444 54.9802C52.7444 55.3602 52.5144 55.7402 52.1344 55.8402L47.6944 56.9602C47.6344 56.9702 47.5744 56.9802 47.5244 56.9802V56.9902Z"></path>
<path stroke-width="0.5" stroke="#2F3E10" fill="#2F3E10" d="M18.7152 54.59C18.7152 54.59 18.6752 54.59 18.6452 54.59C18.2552 54.55 17.9652 54.21 18.0052 53.82L18.6752 46.65C18.7152 46.26 19.0652 45.98 19.4452 46.01C19.8352 46.05 20.1252 46.39 20.0852 46.78L19.4152 53.95C19.3852 54.32 19.0752 54.59 18.7152 54.59Z"></path>
<path stroke-width="0.5" stroke="#2F3E10" fill="#2F3E10" d="M38.7148 36.7201H26.7148C26.3348 36.7201 26.0248 36.43 26.0048 36.05L25.0048 18.3C24.9948 18.11 25.0649 17.9201 25.1949 17.7701C25.3249 17.6301 25.5148 17.55 25.7048 17.55H39.7048C39.8948 17.55 40.0848 17.6301 40.2148 17.7701C40.3448 17.9101 40.4149 18.1 40.4049 18.3L39.4049 36.05C39.3849 36.43 39.0749 36.7201 38.6949 36.7201H38.7148ZM27.3848 35.3H38.0448L38.9648 18.9701H26.4648L27.3848 35.3Z"></path>
</svg>
