<svg id="Group_24924" data-name="Group 24924" xmlns="http://www.w3.org/2000/svg" xmlns:xlink="http://www.w3.org/1999/xlink" width="18" height="18" viewBox="0 0 25 25">
            <defs>
            <clipPath id="clip-path">
            <rect id="Rectangle_8252" data-name="Rectangle 8252" width="18" height="18" fill="currentcolor"></rect>
            </clipPath>
            </defs>
            <g id="Group_24923" data-name="Group 24923">
            <path id="Path_38934" data-name="Path 38934" d="M23.214,25a1.78,1.78,0,0,1-1.263-.523L.523,3.048A1.786,1.786,0,0,1,3.048.523L24.477,21.952A1.786,1.786,0,0,1,23.214,25" transform="translate(0)" fill="currentcolor"></path>
            <path id="Path_38935" data-name="Path 38935" d="M1.786,25A1.786,1.786,0,0,1,.523,21.952L21.952.523a1.786,1.786,0,1,1,2.525,2.525L3.048,24.477A1.78,1.78,0,0,1,1.786,25" transform="translate(0 0)" fill="currentcolor"></path>
            </g>
            </svg>