<svg xml:space="preserve" style="enable-background:new 0 0 100 100;" viewBox="0 0 100 100" y="0px" x="0px" xmlns:xlink="http://www.w3.org/1999/xlink" xmlns="http://www.w3.org/2000/svg">
<path d="M50,99C23,99,1,77,1,50C1,23,23,1,50,1s49,22,49,49C99,77,77,99,50,99z M50,2.7C23.9,2.7,2.7,23.9,2.7,50S23.9,97.3,50,97.3	S97.3,76.1,97.3,50S76.1,2.7,50,2.7z"></path>
<path d="M48.1,67.9c-1.4,0-2.9-0.1-4.3-0.3c-6-0.6-11.7-3.3-16-7.6c-3.6-3.6-5.7-9.8-5.6-16.6c0-0.6,0.4-1,1-1.1	c7.1-0.9,13.2,0.5,17.9,4.1c5.9,4.4,9.4,4.1,12.5,3.3c1.9-0.4,3.7-1.1,5.5-1.7c5.2-1.8,10.1-3.5,14.4,0.2c0.2,0.2,0.4,0.5,0.4,0.8	c0.3,4.3-1.5,8.3-4.9,11.6C64.1,65.1,56.1,67.9,48.1,67.9z M24.5,44.4c0.2,8.6,3.8,12.9,5,14c3.9,3.9,9.1,6.4,14.7,7	c8.7,1.1,18.1-1.5,23.4-6.4c2.9-2.7,4.3-5.9,4.3-9.3c-3.3-2.5-7.1-1.2-11.9,0.5c-1.8,0.6-3.7,1.3-5.7,1.8c-4.3,1-8.4,0.8-14.4-3.7	C35.7,45.1,30.6,43.8,24.5,44.4z"></path>
<path d="M49.2,60.3c-7.1,0-13.2-2.5-17.6-7.3c-0.4-0.5-0.4-1.2,0.1-1.6c0.5-0.4,1.2-0.4,1.6,0.1c4.8,5.3,12,7.5,20.3,6.3	c10.2-1.5,19.6-7.9,23.4-15.9c0.3-0.6,0.9-0.8,1.5-0.5c0.6,0.3,0.8,0.9,0.5,1.5c-4.1,8.7-14.1,15.6-25,17.2	C52.3,60.2,50.7,60.3,49.2,60.3z"></path>
<path d="M47.9,67.8c-0.4,0-0.8-0.2-1-0.6c-0.3-0.6,0-1.2,0.5-1.5c2.3-1.1,4.4-2.7,5.9-4.7c0.4-0.5,1.1-0.6,1.6-0.2	c0.5,0.4,0.6,1.1,0.2,1.6c-1.8,2.3-4.1,4.1-6.7,5.4C48.2,67.8,48,67.8,47.9,67.8z"></path>
<path d="M38.7,52.4c-0.5,0-0.9-0.3-1.1-0.8c-0.5-1.9-0.8-4-0.9-6c0-0.6,0.5-1.1,1.1-1.1c0.6,0,1.1,0.5,1.1,1.1	c0,1.8,0.3,3.7,0.8,5.4c0.2,0.6-0.2,1.2-0.8,1.4C38.9,52.4,38.8,52.4,38.7,52.4z"></path>
</svg>