<svg xml:space="preserve" style="enable-background:new 0 0 100 100;" viewBox="0 0 100 100" y="0px" x="0px" xmlns:xlink="http://www.w3.org/1999/xlink" xmlns="http://www.w3.org/2000/svg">
<path d="M50,99C23,99,1,77,1,50C1,23,23,1,50,1c27,0,49,22,49,49C99,77,77,99,50,99z M50,2.7C23.9,2.7,2.7,23.9,2.7,50	S23.9,97.3,50,97.3S97.3,76.1,97.3,50S76.1,2.7,50,2.7z"></path>
<path d="M43.5,72.8c-1.4,0-2.7-0.2-3.9-0.6c-9.8-3.5-5.8-16.4-2.8-25.8c0.6-2,1.2-3.8,1.6-5.5c1.2-4.8-0.5-8-2.9-8.7	c-3.3-0.9-8.1,2.4-11,12c-0.2,0.6-0.8,0.9-1.4,0.7c-0.6-0.2-0.9-0.8-0.7-1.4c3.3-11,9.3-14.7,13.7-13.5c3.4,1,6.1,5.2,4.5,11.4	c-0.4,1.7-1,3.6-1.6,5.6c-2.8,9-6.3,20.2,1.5,23c2.9,1.1,6.9,0.5,10.8-1.6c2.6-1.4,6.6-4.2,9.8-9.7c-4.7-2-8.1-6.8-9.1-12.8	c-1.1-6.6,1.2-12.8,6-16.7c0.3-0.2,0.7-0.3,1.1-0.2c6.9,2.6,10.2,11.8,7.8,21.3c-0.7,2.7-1.5,5-2.5,7c3.5,0.5,7.3-0.9,11.2-4.1	c0.5-0.4,1.2-0.3,1.6,0.1c0.4,0.5,0.3,1.2-0.1,1.6c-5.6,4.7-10.4,5.2-13.7,4.5c-3.5,6.2-8,9.4-10.9,10.9	C49.2,72.1,46.2,72.8,43.5,72.8z M58.7,31.5c-3.8,3.4-5.6,8.6-4.7,14.2c0.8,5.2,4,9.6,8,11.2c1-2,1.9-4.3,2.6-7	C66.6,41.8,64.1,34,58.7,31.5z"></path>
<path d="M62.5,59.4c-0.4,0-0.8-0.2-1-0.6c-3.7-6.9-5.1-14.9-3.9-22.6c0.1-0.6,0.7-1,1.3-0.9c0.6,0.1,1,0.7,0.9,1.3	c-1.1,7.2,0.2,14.7,3.6,21.2c0.3,0.5,0.1,1.2-0.5,1.5C62.9,59.4,62.7,59.4,62.5,59.4z"></path>
<path d="M58.8,48.9c-0.3,0-0.5-0.1-0.7-0.3c-0.5-0.4-0.5-1.1-0.1-1.6l4.1-4.9c0.4-0.5,1.1-0.5,1.6-0.1c0.5,0.4,0.5,1.1,0.1,1.6	l-4.1,4.9C59.5,48.7,59.2,48.9,58.8,48.9z"></path>
</svg>