<svg xmlns="http://www.w3.org/2000/svg" fill="none" viewBox="0 0 53 67" height="67" width="53">
<path stroke-width="0.5" stroke="#2F3E10" fill="#2F3E10" d="M17.8111 40.2499C17.8111 40.2499 17.7512 40.2499 17.7169 40.2499C17.2978 40.1986 16.9983 39.8136 17.0497 39.3945C17.2379 37.8289 17.8282 36.2549 18.8376 34.561C19.0515 34.2017 19.522 34.082 19.8899 34.2958C20.2492 34.5097 20.3689 34.9802 20.155 35.3481C19.2568 36.8452 18.735 38.231 18.5724 39.5741C18.5211 39.9591 18.196 40.2499 17.8111 40.2499Z"></path>
<path stroke-width="0.5" stroke="#2F3E10" fill="#2F3E10" d="M16.9553 66.0937C14.3375 66.0937 11.7369 65.3922 9.35868 64.0063C5.36362 61.688 2.53198 57.8212 1.59096 53.407C0.8467 49.9081 0.478858 45.1175 4.30283 39.1463C6.37307 35.981 12.4298 31.1904 16.0485 28.3331L16.5104 27.9738C16.8441 27.7086 17.3231 27.7685 17.5883 28.1021C17.8535 28.4357 17.7937 28.9148 17.46 29.18L16.9981 29.5393C13.4564 32.3452 7.51941 37.0332 5.58604 39.9846C2.07004 45.4768 2.40366 49.8739 3.08804 53.0905C3.92641 57.0342 6.55271 60.6186 10.12 62.6889C13.4992 64.6479 17.3574 65.0928 20.9846 63.9379L43.4408 56.7605C43.954 56.5979 44.3818 56.2386 44.6299 55.7596C44.878 55.2805 44.9207 54.7244 44.7582 54.2111C44.4246 53.1675 43.3039 52.5858 42.2517 52.9194L30.4547 56.692C30.0526 56.8203 29.6249 56.5979 29.4965 56.1959C29.3682 55.7938 29.5906 55.366 29.9927 55.2377L41.7897 51.4651C42.6879 51.1828 43.6375 51.2598 44.4759 51.6875C45.3142 52.1153 45.9302 52.851 46.221 53.7492C46.8199 55.6227 45.7847 57.6245 43.9113 58.2233L21.4551 65.4008C19.9751 65.8713 18.4609 66.1108 16.9553 66.1108V66.0937Z"></path>
<path stroke-width="0.5" stroke="#2F3E10" fill="#2F3E10" d="M41.6869 53.0649C41.3618 53.0649 41.0624 52.8596 40.9597 52.5345C40.8314 52.1324 41.0538 51.7047 41.4559 51.5764L47.1961 49.7456C48.4879 49.335 49.2065 47.9406 48.7958 46.6488C48.3852 45.3571 46.9993 44.6385 45.699 45.0491L28.4954 50.5498C28.0934 50.6781 27.6656 50.4557 27.5373 50.0536C27.409 49.6515 27.6314 49.2238 28.0335 49.0955L45.2371 43.5948C47.333 42.9275 49.5914 44.0824 50.2587 46.1869C50.926 48.2828 49.7711 50.5412 47.6666 51.2085L41.9264 53.0392C41.8494 53.0649 41.7724 53.0734 41.6954 53.0734L41.6869 53.0649Z"></path>
<path stroke-width="0.5" stroke="#2F3E10" fill="#2F3E10" d="M43.2097 45.7762C42.8846 45.7762 42.5852 45.5709 42.4825 45.2458C42.3542 44.8437 42.5766 44.416 42.9787 44.2877L49.4033 42.2345C50.0278 42.0378 50.5411 41.6015 50.8405 41.0112C51.1399 40.4209 51.1998 39.7537 51.003 39.1377C50.8063 38.5132 50.37 37.9999 49.7797 37.7005C49.1894 37.4011 48.5221 37.3412 47.9062 37.538L26.5194 44.3732C26.1173 44.5015 25.6896 44.2791 25.5612 43.877C25.4329 43.475 25.6553 43.0472 26.0574 42.9189L47.4442 36.0837C48.4537 35.7586 49.5402 35.8527 50.4897 36.3403C51.4393 36.8279 52.1408 37.6577 52.4659 38.6757C52.791 39.6852 52.6969 40.7717 52.2092 41.7212C51.7216 42.6708 50.8918 43.3723 49.8738 43.6974L43.4492 45.7505C43.3722 45.7762 43.2952 45.7847 43.2182 45.7847L43.2097 45.7762Z"></path>
<path stroke-width="0.5" stroke="#2F3E10" fill="#2F3E10" d="M26.5195 44.3648C26.2714 44.3648 26.0318 44.245 25.8864 44.0312C25.6469 43.6804 25.7324 43.2099 26.0832 42.9704L40.7888 32.8587C41.6357 32.2513 43.0044 30.9595 42.474 29.317C42.2858 28.7182 41.8752 28.2733 41.3363 28.0595C40.6947 27.8028 39.9076 27.8969 39.1377 28.3247L18.3069 40.1644C17.9391 40.3697 17.4685 40.2414 17.2632 39.8736C17.0579 39.5057 17.1862 39.0352 17.5541 38.8299L38.3934 26.9901C39.5825 26.3314 40.823 26.2031 41.9009 26.6308C42.8676 27.0158 43.6033 27.8199 43.9369 28.8465C44.5357 30.72 43.7145 32.6362 41.6699 34.1077L26.9558 44.2279C26.8274 44.322 26.6734 44.3648 26.5195 44.3648Z"></path>
<path stroke-width="0.5" stroke="#2F3E10" fill="#2F3E10" d="M46.4091 38.0854C46.2295 38.0854 46.0413 38.017 45.8958 37.8887C45.5793 37.6064 45.5536 37.1187 45.836 36.8108C46.4091 36.1777 46.9224 35.4762 47.3673 34.7234C53.0647 25.1506 48.7018 6.53555 47.7009 2.67736C43.8342 3.64405 25.3816 8.6828 19.6841 18.247C16.5018 23.5852 17.1947 29.8472 21.7458 36.8535C21.9768 37.2128 21.8741 37.6833 21.5234 37.9143C21.1641 38.1453 20.6936 38.0426 20.4626 37.6919C15.5693 30.1552 14.8678 23.3456 18.3667 17.4685C25.048 6.2447 47.1363 1.22305 48.0773 1.01774C48.4708 0.932193 48.8643 1.16318 48.9756 1.55669C49.2408 2.4806 55.3488 24.2952 48.6676 35.519C48.1714 36.3573 47.5983 37.1358 46.9566 37.8459C46.8027 38.017 46.5973 38.1025 46.3835 38.1025L46.4091 38.0854Z"></path>
<path stroke-width="0.5" stroke="#2F3E10" fill="#2F3E10" d="M29.6677 33.4744C29.5907 33.4744 29.5223 33.4658 29.4453 33.4401C29.0432 33.3204 28.8123 32.8926 28.932 32.482C31.0365 25.5612 35.3138 18.4608 41.6443 11.386C41.9267 11.0695 42.4143 11.0438 42.7223 11.3261C43.0388 11.6084 43.0644 12.0961 42.7821 12.404C36.5971 19.3163 32.4309 26.2199 30.3949 32.9268C30.2922 33.2605 29.9928 33.4744 29.6592 33.4744H29.6677Z"></path>
<path stroke-width="0.5" stroke="#2F3E10" fill="#2F3E10" d="M29.3768 33.1834C29.0517 33.1834 28.7523 32.9781 28.6496 32.6445C28.4614 32.0456 28.2647 31.4553 28.085 30.8822C27.3664 28.6922 26.6906 26.6219 26.3227 24.3977C26.2543 23.9785 26.5366 23.585 26.9472 23.5165C27.3664 23.4395 27.7599 23.7304 27.8284 24.141C28.1877 26.2541 28.8464 28.2644 29.5393 30.4031C29.7275 30.9848 29.9243 31.5751 30.1125 32.1825C30.2408 32.5846 30.0184 33.0123 29.6163 33.1406C29.5393 33.1663 29.4623 33.1748 29.3853 33.1748L29.3768 33.1834Z"></path>
<path stroke-width="0.5" stroke="#2F3E10" fill="#2F3E10" d="M34.3299 22.7127C33.9877 22.7127 33.6798 22.4817 33.5856 22.1309L32.1228 16.3736C32.0201 15.963 32.2682 15.5438 32.6788 15.4411C33.0809 15.3385 33.5001 15.5866 33.6113 15.9972L35.0742 21.7545C35.1768 22.1652 34.9287 22.5843 34.5181 22.687C34.4582 22.7041 34.3898 22.7127 34.3299 22.7127Z"></path>
<path stroke-width="0.5" stroke="#2F3E10" fill="#2F3E10" d="M34.5697 22.8496C34.2275 22.8496 33.9195 22.6186 33.8254 22.2678C33.7228 21.8572 33.9708 21.438 34.3815 21.3354L40.1388 19.8725C40.5409 19.7699 40.9686 20.018 41.0713 20.4286C41.1739 20.8392 40.9258 21.2584 40.5152 21.361L34.7579 22.8239C34.698 22.841 34.6295 22.8496 34.5697 22.8496Z"></path>
</svg>
