<svg xmlns="http://www.w3.org/2000/svg" fill="none" viewBox="0 0 55 67" height="67" width="55">
<path stroke-width="0.5" stroke="#2F3E10" fill="#2F3E10" d="M37.3799 43.9031C33.4557 43.9031 30.301 43.0481 30.0188 42.9712C29.6769 42.8772 29.4802 42.5181 29.5743 42.1846C29.6683 41.8427 30.0274 41.646 30.3608 41.7401C30.4976 41.7828 44.5614 45.5873 50.1357 36.713C55.2482 28.5654 51.8455 12.3899 51.0761 9.08979C49.4175 9.45741 44.5871 10.6287 39.5514 12.7147C39.2266 12.8515 38.8504 12.6976 38.7136 12.3642C38.5768 12.0393 38.7307 11.6632 39.0641 11.5264C45.3651 8.91025 51.3753 7.71333 51.4352 7.69623C51.7686 7.62783 52.0935 7.83302 52.179 8.16645C52.3842 8.97009 57.206 27.8729 51.23 37.397C47.9128 42.6805 42.0906 43.9116 37.3799 43.9116V43.9031Z"></path>
<path stroke-width="0.5" stroke="#2F3E10" fill="#2F3E10" d="M17.7249 65.8326H1.73751C1.38698 65.8326 1.10485 65.559 1.0963 65.2084C0.779973 54.8636 1.13049 46.6733 3.86631 40.3039C5.20002 37.2005 9.57733 31.5664 12.7748 27.4541C13.2707 26.8129 13.7324 26.2145 14.1427 25.6844C14.3565 25.4023 14.7583 25.351 15.0404 25.5647C15.3226 25.7785 15.3739 26.1803 15.1601 26.4624C14.7497 26.9925 14.2881 27.5909 13.7837 28.2321C10.8085 32.0623 6.30291 37.8417 5.03759 40.7998C2.45566 46.8272 2.07949 54.6584 2.35307 64.5416H17.0752V57.1292C17.0752 56.7958 17.3317 56.5222 17.6651 56.488C17.9301 56.4624 24.1798 55.7955 27.3773 47.6992C29.4035 41.612 33.6696 32.8574 35.4821 29.4291C35.4992 28.634 34.9435 28.2236 34.593 28.0441C33.5927 27.5311 31.7973 27.5995 30.19 28.9674C27.2405 31.7032 23.872 35.9437 20.9652 40.5861C20.7771 40.8853 20.3838 40.9793 20.0846 40.7913C19.7854 40.6032 19.6913 40.2099 19.8794 39.9107C22.8461 35.1743 26.2915 30.8397 29.3351 28.0184C31.4211 26.2401 33.7637 26.1888 35.1743 26.9155C36.2601 27.4798 36.85 28.5143 36.7389 29.677C36.7389 29.7625 36.7047 29.848 36.6619 29.9249C34.9008 33.2336 30.6004 42.0309 28.5571 48.1523C25.5904 55.6673 20.1359 57.3344 18.332 57.6849V65.1914C18.332 65.5419 18.0413 65.8326 17.6907 65.8326H17.7249Z"></path>
<path stroke-width="0.5" stroke="#2F3E10" fill="#2F3E10" d="M30.4466 43.0055C30.1816 43.0055 29.9336 42.8431 29.8396 42.578C29.7199 42.2446 29.8909 41.877 30.2243 41.7573C33.4047 40.6117 43.7837 36.1574 43.7837 26.9411C43.7837 17.1093 32.0368 4.95198 29.5917 2.54104C27.1465 4.96053 15.3996 17.1178 15.3996 26.9411C15.3996 31.1645 17.5541 34.8835 21.8117 37.9955C22.0938 38.2007 22.1622 38.6026 21.9485 38.8932C21.7347 39.1754 21.3415 39.2438 21.0508 39.03C16.511 35.7128 14.1172 31.5322 14.1172 26.9411C14.1172 15.4763 28.5315 1.75449 29.1471 1.17313C29.395 0.942291 29.7798 0.942291 30.0277 1.17313C30.6432 1.75449 45.0576 15.4678 45.0576 26.9411C45.0576 36.9953 34.0288 41.7487 30.6432 42.9628C30.5749 42.9884 30.4979 42.997 30.4295 42.997L30.4466 43.0055Z"></path>
<path stroke-width="0.5" stroke="#2F3E10" fill="#2F3E10" d="M29.6085 28.9674C29.258 28.9674 28.9673 28.6767 28.9673 28.3262V9.0643C28.9673 8.71378 29.258 8.4231 29.6085 8.4231C29.959 8.4231 30.2497 8.71378 30.2497 9.0643V28.3262C30.2497 28.6767 29.959 28.9674 29.6085 28.9674Z"></path>
<path stroke-width="0.5" stroke="#2F3E10" fill="#2F3E10" d="M29.4377 19.9732C29.2753 19.9732 29.1128 19.9134 28.9846 19.7851L25.6503 16.4508C25.4024 16.2029 25.4024 15.7925 25.6503 15.5446C25.8982 15.2967 26.3086 15.2967 26.5565 15.5446L29.8908 18.8789C30.1388 19.1268 30.1388 19.5372 29.8908 19.7851C29.7626 19.9134 29.6001 19.9732 29.4377 19.9732Z"></path>
<path stroke-width="0.5" stroke="#2F3E10" fill="#2F3E10" d="M29.4378 27.7448C29.2753 27.7448 29.1129 27.6849 28.9847 27.5567L24.12 22.6835C23.8721 22.4356 23.8721 22.0252 24.12 21.7773C24.368 21.5293 24.7783 21.5293 25.0263 21.7773L29.8909 26.6504C30.1388 26.8984 30.1388 27.3087 29.8909 27.5567C29.7627 27.6849 29.6002 27.7448 29.4378 27.7448Z"></path>
<path stroke-width="0.5" stroke="#2F3E10" fill="#2F3E10" d="M26.4026 32.4811C26.2402 32.4811 26.0777 32.4212 25.9495 32.293L22.5297 28.8732C22.2818 28.6253 22.2818 28.2149 22.5297 27.967C22.7776 27.719 23.188 27.719 23.4359 27.967L26.8557 31.3867C27.1036 31.6347 27.1036 32.045 26.8557 32.293C26.7275 32.4212 26.565 32.4811 26.4026 32.4811Z"></path>
<path stroke-width="0.5" stroke="#2F3E10" fill="#2F3E10" d="M29.6513 19.9732C29.4888 19.9732 29.3264 19.9134 29.1982 19.7851C28.9502 19.5372 28.9502 19.1268 29.1982 18.8789L32.5324 15.5446C32.7804 15.2967 33.1907 15.2967 33.4387 15.5446C33.6866 15.7925 33.6866 16.2029 33.4387 16.4508L30.1044 19.7851C29.9762 19.9134 29.8137 19.9732 29.6513 19.9732Z"></path>
<path stroke-width="0.5" stroke="#2F3E10" fill="#2F3E10" d="M29.6513 27.7448C29.4888 27.7448 29.3264 27.6849 29.1982 27.5567C28.9502 27.3087 28.9502 26.8984 29.1982 26.6504L34.0628 21.7773C34.3107 21.5293 34.7211 21.5293 34.969 21.7773C35.217 22.0252 35.217 22.4356 34.969 22.6835L30.1044 27.5567C29.9762 27.6849 29.8137 27.7448 29.6513 27.7448Z"></path>
<path stroke-width="0.5" stroke="#2F3E10" fill="#2F3E10" d="M43.5015 21.9143C43.3904 21.9143 43.2793 21.8886 43.1767 21.8288C42.8689 21.6492 42.7748 21.2559 42.9544 20.9482L47.0837 13.9633C47.2633 13.6555 47.6566 13.5615 47.9643 13.741C48.2721 13.9205 48.3662 14.3138 48.1866 14.6216L44.0573 21.6065C43.9376 21.8117 43.7238 21.9228 43.5015 21.9228V21.9143Z"></path>
<path stroke-width="0.5" stroke="#2F3E10" fill="#2F3E10" d="M44.2793 24.6242C43.9715 24.6242 43.7065 24.4019 43.6466 24.0942C43.5868 23.7436 43.8176 23.4102 44.1682 23.3504L47.8701 22.7091C48.2206 22.6493 48.554 22.8801 48.6139 23.2307C48.6737 23.5812 48.4429 23.9146 48.0924 23.9745L44.3905 24.6157C44.3905 24.6157 44.3135 24.6242 44.2793 24.6242Z"></path>
<path stroke-width="0.5" stroke="#2F3E10" fill="#2F3E10" d="M43.98 32.1307C43.6722 32.1307 43.4072 31.9084 43.3473 31.6007C43.2875 31.2501 43.5183 30.9167 43.8688 30.8568L46.5277 30.3952C46.8782 30.3353 47.2117 30.5662 47.2715 30.9167C47.3314 31.2672 47.1005 31.6007 46.75 31.6605L44.0911 32.1222C44.0911 32.1222 44.0142 32.1307 43.98 32.1307Z"></path>
</svg>
