<svg xmlns="http://www.w3.org/2000/svg" fill="none" viewBox="0 0 100 102" height="102" width="100">
<path stroke-width="0.5" stroke="#2F3E10" fill="#2F3E10" d="M52.3569 99.9532C50.7425 99.9532 49.1428 99.5829 47.5876 98.872C47.0248 98.6202 46.7878 97.9537 47.0396 97.3909C47.2914 96.8281 47.9727 96.5911 48.5208 96.8429C49.7797 97.4205 51.0683 97.7167 52.3421 97.7167C63.48 97.7167 72.5444 76.522 72.5444 50.4692C72.5444 24.4164 63.48 3.22167 52.3421 3.22167C41.2041 3.22167 32.1396 24.4164 32.1396 50.4692C32.1396 64.6583 34.8797 78.0031 39.6637 87.0675C39.9451 87.6155 39.7378 88.282 39.2046 88.5634C38.6566 88.8597 37.9901 88.6375 37.7086 88.1043C32.7617 78.7288 29.918 65.0137 29.918 50.4692C29.918 22.7279 39.7674 1 52.3421 1C64.9167 1 74.766 22.7279 74.766 50.4692C74.766 78.2104 64.9167 99.9384 52.3421 99.9384L52.3569 99.9532Z"></path>
<path stroke-width="0.5" stroke="#2F3E10" fill="#2F3E10" d="M25.5787 82.0614C17.9657 82.0614 12.1745 79.8249 9.52334 75.2186C3.22861 64.3324 17.1215 44.9298 41.1452 31.0666C55.2602 22.9205 70.2046 18.4031 81.1944 19.0103C81.8017 19.04 82.2757 19.5732 82.2461 20.1804C82.2165 20.7877 81.6832 21.2468 81.0759 21.232C70.5304 20.6544 56.0155 25.0533 42.2707 32.9921C19.7134 46.011 5.8798 64.4657 11.4636 74.1226C17.0326 83.7646 39.9158 81.0246 62.488 68.0056C73.5371 61.622 82.8237 53.7425 88.6445 45.8037C94.2579 38.1315 95.9167 31.4073 93.3099 26.8751C93.1618 26.6233 93.0137 26.3863 92.8508 26.1641C92.4953 25.6605 92.6138 24.9644 93.1026 24.6089C93.5913 24.2535 94.2875 24.372 94.6578 24.8608C94.8652 25.1422 95.0576 25.4532 95.2354 25.7642C98.3161 31.0962 96.6128 38.6795 90.4366 47.1071C84.4529 55.2828 74.9145 63.3845 63.5988 69.9162C49.7504 77.9142 35.976 82.0762 25.6082 82.0762L25.5787 82.0614Z"></path>
<path stroke-width="0.5" stroke="#2F3E10" fill="#2F3E10" d="M79.1206 82.0614C68.7528 82.0614 54.9785 77.8994 41.1301 69.9014C27.8445 62.2292 17.0916 52.4539 11.6559 43.0636C11.3449 42.5304 11.5226 41.8491 12.0558 41.5381C12.589 41.227 13.2704 41.4048 13.5666 41.938C18.8246 50.9876 29.2664 60.4815 42.2261 67.9611C64.7835 80.9801 87.6667 83.735 93.2505 74.0781C98.8195 64.4213 85.0007 45.9814 62.4434 32.9476C51.3943 26.564 39.9156 22.4613 30.1403 21.3949C20.6908 20.373 14.0257 22.2984 11.419 26.8158C10.9746 27.6008 10.6488 28.445 10.4414 29.3633C10.3081 29.9706 9.71572 30.3409 9.12327 30.2224C8.51602 30.0891 8.14571 29.4966 8.2642 28.9042C8.51599 27.7637 8.9159 26.6973 9.47872 25.705C12.5594 20.373 19.9798 18.0476 30.3624 19.1881C40.434 20.2841 52.2089 24.4905 63.5394 31.0222C87.563 44.8854 101.456 64.288 95.1611 75.1742C92.4951 79.7804 86.704 82.0169 79.0911 82.0317L79.1206 82.0614Z"></path>
<path stroke-width="0.5" stroke="#2F3E10" fill="#2F3E10" d="M10.5006 43.5376C6.30909 43.5376 2.8877 40.1163 2.8877 35.9247C2.8877 31.7332 6.30909 28.3118 10.5006 28.3118C14.6922 28.3118 18.1135 31.7332 18.1135 35.9247C18.1135 40.1163 14.707 43.5376 10.5006 43.5376ZM10.5006 30.5334C7.5236 30.5334 5.10937 32.9477 5.10937 35.9247C5.10937 38.9018 7.5236 41.316 10.5006 41.316C13.4777 41.316 15.8918 38.9018 15.8918 35.9247C15.8918 32.9477 13.4777 30.5334 10.5006 30.5334Z"></path>
<path stroke-width="0.5" stroke="#2F3E10" fill="#2F3E10" d="M87.9626 29.23C83.771 29.23 80.3496 25.8086 80.3496 21.6171C80.3496 17.4255 83.7562 14.0042 87.9626 14.0042C92.1689 14.0042 95.5755 17.4255 95.5755 21.6171C95.5755 25.8086 92.1541 29.23 87.9626 29.23ZM87.9626 16.2406C84.9855 16.2406 82.5713 18.6548 82.5713 21.6319C82.5713 24.6089 84.9855 27.0231 87.9626 27.0231C90.9396 27.0231 93.3538 24.6089 93.3538 21.6319C93.3538 18.6548 90.9396 16.2406 87.9626 16.2406Z"></path>
<path stroke-width="0.5" stroke="#2F3E10" fill="#2F3E10" d="M42.4772 100.99C38.2857 100.99 34.8643 97.5686 34.8643 93.3771C34.8643 89.1855 38.2708 85.7642 42.4772 85.7642C46.6836 85.7642 50.0901 89.1707 50.0901 93.3771C50.0901 97.5834 46.6688 100.99 42.4772 100.99ZM42.4772 87.9858C39.5002 87.9858 37.0859 90.4 37.0859 93.3771C37.0859 96.3541 39.5002 98.7683 42.4772 98.7683C45.4542 98.7683 47.8685 96.3541 47.8685 93.3771C47.8685 90.4 45.4542 87.9858 42.4772 87.9858Z"></path>
</svg>
