<svg xmlns="http://www.w3.org/2000/svg" fill="none" viewBox="0 0 100 102" height="102" width="100">
<path stroke-width="0.5" stroke="#2F3E10" fill="#2F3E10" d="M52.5585 101C48.6374 101 41.2854 97.4684 34.1596 94.0501C28.0643 91.1218 21.7554 88.0931 19.0157 88.0428C18.3245 88.1685 13.1592 89.111 5.6564 91.5114C5.36735 91.5994 5.05318 91.5491 4.8144 91.3732C4.57561 91.1972 4.4248 90.9082 4.4248 90.6066V69.6564C4.4248 69.2669 4.66355 68.9276 5.01544 68.7767C8.55949 67.3566 15.3963 65.283 18.5759 64.818C23.6029 63.7749 32.6892 64.0639 41.5493 68.3495C49.404 71.9563 57.9877 75.0103 62.1224 76.4807C66.1566 78.3281 67.891 80.6656 67.5265 83.6567C67.4385 84.2223 67.2751 84.7249 67.0615 85.1774C69.2608 84.7878 72.4403 84.0212 75.1549 83.3551C77.7564 82.7267 80.0061 82.1863 81.1874 81.9978C85.385 80.741 89.3814 82.8147 90.4874 85.5544C91.1911 87.2888 90.5628 88.8974 88.8662 89.7771C77.1029 94.3894 60.6898 100.51 52.923 100.987C52.8099 100.987 52.6842 100.987 52.5711 100.987L52.5585 101ZM18.9403 86.1451C22.0696 86.1451 28.3408 89.1487 34.9765 92.3409C41.7756 95.6085 49.4292 99.3159 52.8099 99.1022C61.1799 98.5995 81.4262 90.6694 88.087 88.0679C88.8285 87.6783 89.0673 87.0751 88.7405 86.2708C88.0619 84.5993 85.1462 82.7644 81.665 83.8326C81.6147 83.8452 81.5644 83.8578 81.5267 83.8703C80.4459 84.0212 78.0958 84.5993 75.5948 85.2025C71.4727 86.1953 66.7976 87.339 64.9376 87.339C64.8873 87.339 64.8496 87.339 64.7993 87.339C63.4294 87.9297 61.5569 88.0679 59.2068 87.7412C53.4508 87.0248 47.0162 85.19 39.5511 82.1235C39.0736 81.9224 38.8347 81.382 39.0358 80.8918C39.2369 80.4143 39.7899 80.1755 40.2675 80.3766C47.5818 83.3676 53.8655 85.1648 59.4581 85.8686C64.4851 86.5598 65.4025 84.9135 65.6539 83.4054C65.8298 82.0104 65.5031 80.1252 61.4061 78.2526C57.3342 76.8074 48.6877 73.7409 40.7451 70.0837C32.2871 65.9993 23.7034 65.7103 18.9026 66.7031C16.0498 67.1178 9.87912 68.9652 6.30994 70.3225V89.3498C13.7751 87.0374 18.5758 86.2205 18.7769 86.1828C18.8272 86.1828 18.8775 86.1828 18.9277 86.1828L18.9403 86.1451Z"></path>
<path stroke-width="0.5" stroke="#2F3E10" fill="#2F3E10" d="M61.2425 68.7642C42.5545 68.7642 27.3604 53.5701 27.3604 34.8821C27.3604 16.1942 42.5545 1 61.2425 1C79.9304 1 95.1246 16.1942 95.1246 34.8821C95.1246 53.5701 79.9304 68.7642 61.2425 68.7642ZM61.2425 2.79719C43.5474 2.79719 29.1575 17.187 29.1575 34.8821C29.1575 52.5773 43.5474 66.9671 61.2425 66.9671C78.9376 66.9671 93.3274 52.5773 93.3274 34.8821C93.3274 17.187 78.9376 2.79719 61.2425 2.79719Z"></path>
<path stroke-width="0.5" stroke="#2F3E10" fill="#2F3E10" d="M60.4139 63.3603C60.2505 63.3603 60.0745 63.31 59.9237 63.2221C59.4964 62.9456 59.0692 62.7822 58.6042 62.5937C57.7621 62.2669 56.8196 61.8899 56.0907 60.8594C55.7262 60.3441 54.658 59.5146 53.8411 59.0119C53.2504 58.6475 52.6848 58.4087 52.0816 58.1699C51.1265 57.7803 50.1462 57.3782 49.2037 56.4607C49.0528 56.423 48.7386 56.3853 48.5375 56.3602C47.7835 56.2722 47.0169 56.1968 46.6273 55.5684C46.4514 55.2668 45.9989 55.1914 45.27 55.0909C44.5662 54.9903 43.7619 54.8647 43.0833 54.362C42.4926 53.9221 42.0276 53.3943 41.5751 52.8915C40.9593 52.2129 40.4441 51.6222 39.7278 51.3332C38.3705 50.7928 38.1819 49.2972 38.0311 48.1033C37.9305 47.3367 37.83 46.4695 37.453 46.2056C37.1765 46.0171 36.8246 45.7909 36.435 45.5647C34.8766 44.6096 33.2554 43.6293 33.18 42.3725C33.1675 42.0709 33.2178 41.4928 33.8336 41.0027C33.9215 40.9273 34.198 40.5502 34.399 40.2863C35.3793 38.9793 35.9574 38.2378 36.7743 38.3006C37.8677 38.3886 38.7852 38.0995 39.2502 37.534C39.5769 37.1444 39.6649 36.6291 39.5392 36.0008C36.5607 33.6506 34.1729 30.5842 32.6396 27.1155C32.4763 26.7385 32.3254 26.3992 32.1369 26.2609C31.9861 26.1478 31.7096 26.0724 31.4205 26.0096C31.1189 25.9342 30.7796 25.8588 30.4277 25.6828C29.9879 25.4692 29.7993 24.9288 30.013 24.4763C30.2266 24.0365 30.7671 23.8479 31.2195 24.0616C31.3829 24.137 31.5965 24.1998 31.8353 24.2501C32.25 24.3506 32.7653 24.4763 33.2177 24.8282C33.7707 25.2555 34.0346 25.8462 34.2482 26.3363C35.7312 29.6793 38.0185 32.5698 40.8714 34.7692C41.0222 34.8823 41.1353 35.0456 41.1856 35.2216C41.5752 36.5286 41.3741 37.7476 40.6326 38.6651C39.8157 39.6705 38.4332 40.1983 36.8372 40.1104C36.5732 40.3617 36.0705 41.0278 35.8192 41.3671C35.4422 41.8698 35.216 42.1714 35.0149 42.3599C35.3417 42.8249 36.6864 43.6418 37.3525 44.0566C37.7672 44.3079 38.1442 44.5467 38.4584 44.7478C39.489 45.4642 39.6523 46.7586 39.8032 47.8897C39.9037 48.694 40.0042 49.5234 40.3812 49.6743C41.4872 50.1141 42.2035 50.9185 42.9073 51.6977C43.322 52.1627 43.7116 52.5899 44.1515 52.9293C44.4657 53.168 44.981 53.2434 45.5214 53.3188C46.3634 53.4445 47.4065 53.5954 48.0475 54.4877C48.2108 54.5254 48.5124 54.563 48.7135 54.5882C49.367 54.6636 49.9829 54.7264 50.3976 55.1411C51.0888 55.8449 51.8554 56.1591 52.7351 56.511C53.3509 56.7624 54.0547 57.0514 54.7711 57.4913C54.9722 57.617 56.7945 58.7732 57.5485 59.8289C57.9633 60.4195 58.5036 60.6331 59.2577 60.9348C59.4336 60.9976 59.6096 61.073 59.7981 61.1484C59.6347 60.4321 59.1068 59.3638 58.7424 58.6349C58.3151 57.7678 57.8627 56.8629 57.6365 56.046C57.4103 55.2543 57.2092 54.6259 56.807 54.2237C56.6436 54.0603 56.4551 53.9472 56.2666 53.809C56.0153 53.633 55.7639 53.4571 55.5377 53.256C54.3563 52.1626 54.0296 50.2901 54.6957 48.5935C55.2109 47.299 56.1786 46.3187 57.0206 45.6024C56.7819 45.3133 56.2415 45.0871 55.3492 44.7729C54.1302 44.3331 52.7351 43.8429 52.2198 42.473C52.1319 42.2217 52.0691 41.9578 52.0314 41.6939C51.9937 41.4676 51.956 41.2414 51.8806 41.166C51.7549 41.0152 51.2145 40.9775 51.0008 40.965C49.8823 40.8896 48.9523 40.7639 48.0475 40.6382C47.13 40.5125 46.2629 40.3994 45.2072 40.324C44.6416 40.2863 43.4477 40.1983 42.8571 39.2181C42.5052 38.6399 42.5052 37.9487 42.8571 37.3329C43.3221 36.5035 44.3652 35.9002 45.358 35.8877C45.9989 35.85 46.4514 36.051 46.7907 36.1767C47.13 36.3024 47.2808 36.3527 47.5699 36.2772C48.3994 36.051 48.8895 35.1462 49.455 34.0779C49.7189 33.5878 49.9828 33.0851 50.297 32.6201C50.9757 31.6398 51.8806 30.9235 52.7477 30.2323C53.1247 29.9306 53.5018 29.629 53.8662 29.3023C54.4318 28.787 55.7137 27.4548 55.4372 26.0598C55.3869 25.7708 55.2487 25.4566 55.1104 25.1298C54.9219 24.6774 54.7083 24.1747 54.6328 23.5966C54.4318 21.9377 55.4623 20.2662 57.5485 18.9215C58.0387 18.6073 58.5036 18.3057 58.5916 17.9915C58.6419 17.8155 58.6042 17.4762 58.1643 16.8352C57.9255 16.4959 57.7622 16.1441 57.5988 15.7922C57.3097 15.1638 57.1212 14.8119 56.7944 14.6611C56.2415 15.7042 54.9345 16.0435 53.8411 16.3074C52.9362 16.5336 52.0063 16.7724 51.6669 17.3128C51.579 17.4636 51.5035 17.6647 51.4281 17.8909C51.3025 18.2428 51.1642 18.645 50.8877 19.0094C50.2719 19.8263 48.9523 20.5678 46.2 19.4996L41.085 17.5013C40.6703 17.3379 40.1551 17.1369 39.7278 16.7598C39.3382 16.4205 39.0993 16.0058 38.8983 15.6414C38.7851 15.4528 38.6846 15.2643 38.5464 15.1009C38.0437 14.4851 37.0006 14.3218 36.3471 14.7742C35.9324 15.0507 35.3794 14.9501 35.0903 14.548C34.8138 14.1333 34.9144 13.5803 35.3165 13.2912C36.7367 12.311 38.8606 12.6251 39.9414 13.9698C40.1299 14.2086 40.2932 14.4726 40.444 14.7365C40.6074 15.013 40.7457 15.2643 40.9216 15.4151C41.1101 15.5911 41.4369 15.7168 41.7385 15.8299L46.8535 17.8281C47.4819 18.0669 48.9649 18.5696 49.455 17.9286C49.5681 17.7904 49.6435 17.5516 49.7315 17.3128C49.832 17.0238 49.9451 16.6844 50.1462 16.3577C50.8751 15.214 52.2198 14.8747 53.4012 14.5731C54.7333 14.2338 55.2235 14.0327 55.2612 13.5928C55.2989 13.1404 55.676 12.7885 56.1284 12.776C58.1895 12.7005 58.7927 14.1207 59.22 15.0381C59.3582 15.3272 59.4839 15.6037 59.6221 15.8047C59.8735 16.1692 60.6401 17.2626 60.3133 18.4691C60.0494 19.4493 59.22 19.9771 58.5665 20.4044C57.6616 20.9825 56.254 22.1136 56.4048 23.383C56.4425 23.7097 56.5934 24.0616 56.7442 24.4261C56.9076 24.8031 57.0835 25.2304 57.184 25.7079C57.4982 27.3166 56.719 29.1138 55.0475 30.6344C54.6579 30.9863 54.2558 31.3131 53.8411 31.6398C53.0368 32.2808 52.2702 32.8966 51.7423 33.6506C51.4784 34.0277 51.2522 34.455 51.0134 34.92C50.3473 36.1767 49.5932 37.5843 48.0097 38.0116C47.1551 38.2378 46.577 38.0116 46.1372 37.8608C45.8733 37.7602 45.7099 37.6722 45.358 37.6848C44.8679 37.6848 44.3903 38.1247 44.3777 38.2755C44.428 38.3509 44.6039 38.4766 45.3203 38.5269C46.4388 38.6023 47.3688 38.7279 48.2737 38.8536C49.1911 38.9793 50.0583 39.0924 51.114 39.1678C51.6544 39.2055 52.6471 39.2809 53.263 40.035C53.6148 40.4748 53.7154 40.9775 53.7783 41.3797C53.8034 41.5305 53.8285 41.6939 53.8788 41.8321C54.105 42.4228 55.035 42.7495 55.9273 43.0763C57.2343 43.5413 58.8681 44.1194 58.9184 45.8914C58.9184 46.1805 58.8053 46.457 58.5665 46.6329C57.3726 47.5629 56.6813 48.3672 56.3294 49.247C55.9901 50.089 56.0278 51.2829 56.719 51.9364C56.8824 52.0873 57.0584 52.2004 57.2343 52.326C57.4857 52.4894 57.7622 52.6905 58.0135 52.9418C58.7927 53.7084 59.1069 54.7767 59.3205 55.5559C59.509 56.2219 59.9112 57.0388 60.3133 57.8306C61.281 59.766 62.2739 61.7768 61.0046 63.0964C60.8287 63.2723 60.5899 63.3729 60.3511 63.3729L60.4139 63.3603Z"></path>
<path stroke-width="0.5" stroke="#2F3E10" fill="#2F3E10" d="M85.6368 36.4656C85.4734 36.4656 85.31 36.4657 85.1341 36.4279C84.3423 36.3023 83.6888 35.9001 83.1233 35.5357C82.6457 35.234 82.2058 34.9575 81.7786 34.8947C81.5272 34.857 81.213 34.8947 80.8737 34.945C80.5847 34.9827 80.283 35.0204 79.994 35.0204C78.3351 35.0204 76.7767 34.0024 76.1483 32.5195C75.9598 32.067 75.8593 31.6272 75.7713 31.1999C75.7085 30.9108 75.6456 30.6218 75.5451 30.3327C75.3817 29.8803 75.0675 29.541 74.8162 29.541C74.6528 29.541 74.4266 29.6415 74.1878 29.742C74.0621 29.7923 73.9364 29.8551 73.8108 29.9054C72.4283 30.4332 70.895 30.1316 69.9902 29.1765C69.6006 28.7618 69.3744 28.2842 69.1733 27.8569C69.0728 27.6433 68.9722 27.417 68.834 27.216C68.6455 26.9269 68.369 26.7635 68.2559 26.7887C68.0422 26.9143 67.7783 26.952 67.5395 26.8766C67.3007 26.8012 67.0996 26.6378 66.9865 26.4116C66.5467 25.5319 65.5288 23.4708 66.5844 21.8119C66.9615 21.2212 67.5144 20.8442 67.9668 20.5426L73.7354 16.6089C74.1627 16.3199 74.5145 16.0685 74.6402 15.7795C74.6905 15.6664 74.7281 15.4904 74.7658 15.3145C74.8287 15.0003 74.9041 14.5981 75.1429 14.2211C75.5702 13.5173 76.2866 13.2157 76.8521 12.9769L77.0406 12.9015C78.7246 12.1726 80.1196 10.7148 80.748 8.993C80.9239 8.52801 81.4393 8.2892 81.9043 8.46515C82.3693 8.6411 82.608 9.15638 82.4321 9.62138C81.6278 11.7956 79.8809 13.643 77.7444 14.5479L77.5307 14.6358C77.1663 14.7866 76.7892 14.95 76.6635 15.1511C76.6007 15.2642 76.563 15.4527 76.5127 15.6664C76.4625 15.9177 76.3996 16.2068 76.274 16.5084C75.9346 17.2876 75.2435 17.7652 74.7408 18.1045L68.9722 22.0381C68.6329 22.2769 68.2684 22.5157 68.0925 22.7922C67.7406 23.3452 67.9543 24.1998 68.2936 24.9915C69.0853 25.0166 69.8645 25.5445 70.317 26.2357C70.4929 26.4996 70.6311 26.8012 70.7694 27.0903C70.9327 27.417 71.071 27.7312 71.2721 27.9449C71.7245 28.4224 72.554 28.4476 73.1321 28.2213C73.2326 28.1836 73.3331 28.146 73.4337 28.0957C73.8107 27.9323 74.2632 27.681 74.8162 27.7438C75.8341 27.7564 76.7766 28.5355 77.2039 29.7295C77.3296 30.0814 77.4176 30.4458 77.493 30.8228C77.5685 31.1873 77.6438 31.5266 77.7695 31.8283C78.1214 32.6577 79.0766 33.2861 79.9312 33.2358C80.1574 33.2358 80.371 33.1981 80.5972 33.173C81.0119 33.1227 81.477 33.0473 81.9671 33.1227C82.7966 33.2358 83.45 33.6506 84.0407 34.0276C84.5057 34.3166 84.9456 34.6057 85.3729 34.6685C86.4914 34.8444 87.5722 33.6002 88.4771 32.4189C90.1611 30.2447 91.9834 29.3901 93.6172 30.0059C94.1701 30.207 94.497 30.6595 94.4718 31.1747C94.4593 31.5643 94.2204 31.9037 93.8559 32.0545C93.4915 32.2178 93.0516 32.1676 92.7626 31.9162C92.662 31.8408 92.5866 31.7277 92.5238 31.602C91.4681 31.6271 90.3622 32.8965 89.8846 33.5123C89.0677 34.568 87.5974 36.4782 85.574 36.4782L85.6368 36.4656Z"></path>
<path stroke-width="0.5" stroke="#2F3E10" fill="#2F3E10" d="M78.6984 60.6459C77.5924 60.6459 75.9838 60.5202 75.0035 59.3388C73.6839 57.7805 74.35 55.4429 75.6319 54.0353C76.1849 53.4321 76.8007 52.9545 77.404 52.4895C78.0072 52.0245 78.5727 51.5847 79.0377 51.0568C79.729 50.2776 80.0934 49.3351 80.0431 48.4679C79.9929 47.6008 79.4273 46.7713 78.7235 46.5199C78.5853 46.4697 78.4345 46.432 78.2962 46.3943C78.0323 46.3314 77.7684 46.256 77.517 46.1555C76.7378 45.8287 76.1472 45.1627 75.8456 44.2955C75.4937 43.2901 75.5817 42.159 76.0718 41.2416C76.8007 39.8969 78.3088 38.9291 80.1939 38.6024C81.6895 38.3385 83.1348 38.4641 84.5675 38.4013C86.1384 38.3385 87.282 37.9991 88.0486 37.3833C88.4759 37.044 88.8404 36.579 89.2174 36.0763C89.519 35.6867 89.8207 35.2971 90.1851 34.9201C91.1151 33.965 92.7489 33.1104 94.2444 33.8519C94.6843 34.0655 94.8728 34.6059 94.6592 35.0583C94.4455 35.4982 93.9052 35.6867 93.4528 35.4731C92.8621 35.184 92.0075 35.6364 91.4671 36.1894C91.1654 36.5036 90.9015 36.8429 90.6376 37.1823C90.2103 37.7352 89.7579 38.3133 89.1672 38.7909C88.0864 39.6581 86.6034 40.1231 84.6303 40.211C83.2102 40.2739 81.8026 40.1608 80.4955 40.387C79.1508 40.6258 78.1078 41.2541 77.6428 42.1213C77.3914 42.5863 77.3537 43.2021 77.5296 43.7174C77.6302 43.9813 77.8187 44.3458 78.2083 44.5092C78.3717 44.572 78.535 44.6097 78.711 44.66C78.912 44.7102 79.1257 44.7605 79.3143 44.8359C80.7218 45.3386 81.7272 46.7587 81.8278 48.3674C81.9032 49.687 81.3879 51.1071 80.3825 52.2382C79.8044 52.8917 79.1383 53.407 78.4973 53.9097C77.9318 54.3495 77.3914 54.7643 76.9516 55.2544C76.1849 56.0964 75.745 57.4537 76.3608 58.1826C76.9012 58.8361 78.07 58.8613 79.1257 58.8487L82.0414 58.7859C82.896 58.7733 83.361 58.5094 83.361 58.4089C83.3861 57.9187 83.8008 57.5417 84.3035 57.5542C84.7937 57.5794 85.1833 57.9941 85.1581 58.4968C85.0953 59.7536 83.9139 60.5453 82.0791 60.583L79.1634 60.6459C79.0251 60.6459 78.8618 60.6459 78.6859 60.6459H78.6984Z"></path>
</svg>
