<svg xmlns="http://www.w3.org/2000/svg" fill="none" viewBox="0 0 930 267" height="267" width="930">
<path fill="black" d="M306.688 214.531V62.0343H336.19V214.531H306.688ZM328.381 152.057V125.809H405.171V152.057H328.381ZM328.381 88.0649V62.0343H408.859V88.0649H328.381Z"></path>
<path fill="black" d="M469.277 216.7C459.732 216.7 451.128 214.314 443.463 209.542C435.799 204.769 429.797 198.262 425.459 190.018C421.12 181.775 418.951 172.52 418.951 162.252C418.951 151.84 421.12 142.512 425.459 134.269C429.797 126.026 435.799 119.519 443.463 114.746C451.128 109.974 459.732 107.588 469.277 107.588C476.797 107.588 483.521 109.106 489.451 112.143C495.38 115.18 500.08 119.446 503.551 124.942C507.166 130.293 509.118 136.366 509.408 143.163V180.908C509.118 187.849 507.166 193.995 503.551 199.346C500.08 204.697 495.38 208.963 489.451 212.145C483.521 215.181 476.797 216.7 469.277 216.7ZM474.483 190.452C482.437 190.452 488.872 187.849 493.789 182.643C498.706 177.292 501.165 170.423 501.165 162.035C501.165 156.54 500.008 151.696 497.694 147.502C495.525 143.163 492.415 139.837 488.366 137.523C484.461 135.065 479.834 133.836 474.483 133.836C469.277 133.836 464.649 135.065 460.6 137.523C456.695 139.837 453.586 143.163 451.272 147.502C449.103 151.696 448.019 156.54 448.019 162.035C448.019 167.675 449.103 172.665 451.272 177.003C453.586 181.197 456.695 184.523 460.6 186.982C464.649 189.295 469.277 190.452 474.483 190.452ZM499.646 214.531V186.331L504.201 160.734L499.646 135.571V109.757H527.846V214.531H499.646Z"></path>
<path fill="black" d="M611.12 216.7C603.6 216.7 596.804 215.109 590.73 211.928C584.656 208.746 579.811 204.408 576.196 198.912C572.581 193.417 570.628 187.271 570.339 180.474V143.163C570.628 136.366 572.581 130.293 576.196 124.942C579.956 119.446 584.873 115.18 590.947 112.143C597.02 109.106 603.745 107.588 611.12 107.588C620.81 107.588 629.487 109.974 637.151 114.746C644.816 119.519 650.817 126.026 655.156 134.269C659.639 142.512 661.88 151.84 661.88 162.252C661.88 172.52 659.639 181.775 655.156 190.018C650.817 198.262 644.816 204.769 637.151 209.542C629.487 214.314 620.81 216.7 611.12 216.7ZM552.985 214.531V57.6958H581.402V135.571L576.63 160.734L581.185 186.331V214.531H552.985ZM606.348 190.452C611.554 190.452 616.11 189.295 620.014 186.982C624.063 184.523 627.173 181.197 629.342 177.003C631.656 172.665 632.813 167.675 632.813 162.035C632.813 156.54 631.656 151.696 629.342 147.502C627.173 143.163 624.063 139.837 620.014 137.523C615.965 135.065 611.337 133.836 606.131 133.836C600.925 133.836 596.297 135.065 592.248 137.523C588.344 139.837 585.234 143.163 582.921 147.502C580.751 151.696 579.667 156.54 579.667 162.035C579.667 167.675 580.751 172.665 582.921 177.003C585.234 181.197 588.416 184.523 592.465 186.982C596.514 189.295 601.142 190.452 606.348 190.452Z"></path>
<path fill="black" d="M680.512 214.531V109.757H709.146V214.531H680.512Z"></path>
<path fill="black" d="M770.328 216.917C764.399 216.917 758.542 216.121 752.757 214.531C747.117 212.94 741.911 210.771 737.139 208.023C732.367 205.131 728.245 201.66 724.774 197.611L741.694 180.474C745.31 184.523 749.503 187.56 754.276 189.585C759.048 191.609 764.326 192.622 770.111 192.622C774.739 192.622 778.209 191.971 780.523 190.669C782.982 189.368 784.211 187.415 784.211 184.812C784.211 181.92 782.909 179.679 780.306 178.088C777.848 176.497 774.594 175.195 770.545 174.183C766.496 173.026 762.229 171.797 757.746 170.495C753.408 169.049 749.214 167.242 745.165 165.072C741.116 162.759 737.79 159.649 735.186 155.745C732.728 151.696 731.499 146.489 731.499 140.126C731.499 133.474 733.09 127.689 736.271 122.773C739.597 117.856 744.297 114.023 750.371 111.276C756.445 108.528 763.603 107.154 771.846 107.154C780.523 107.154 788.332 108.673 795.274 111.709C802.36 114.746 808.217 119.302 812.845 125.376L795.708 142.512C792.526 138.608 788.911 135.788 784.862 134.052C780.957 132.317 776.691 131.449 772.063 131.449C767.869 131.449 764.616 132.1 762.302 133.402C760.133 134.703 759.048 136.511 759.048 138.825C759.048 141.428 760.277 143.452 762.736 144.899C765.339 146.345 768.665 147.646 772.714 148.803C776.763 149.816 780.957 151.045 785.296 152.491C789.779 153.792 793.972 155.672 797.877 158.131C801.926 160.589 805.18 163.843 807.639 167.892C810.242 171.942 811.543 177.148 811.543 183.511C811.543 193.778 807.855 201.949 800.48 208.023C793.105 213.952 783.054 216.917 770.328 216.917Z"></path>
<path fill="black" d="M901.205 214.531V154.443C901.205 148.225 899.253 143.163 895.348 139.259C891.443 135.354 886.382 133.402 880.164 133.402C876.114 133.402 872.499 134.269 869.317 136.005C866.136 137.74 863.605 140.199 861.725 143.38C859.99 146.562 859.122 150.249 859.122 154.443L848.059 148.803C848.059 140.56 849.794 133.402 853.265 127.328C856.736 121.109 861.508 116.265 867.582 112.794C873.8 109.323 880.887 107.588 888.84 107.588C896.794 107.588 903.808 109.323 909.882 112.794C916.1 116.265 920.945 121.037 924.416 127.111C927.886 133.185 929.622 140.199 929.622 148.152V214.531H901.205ZM830.705 214.531V57.6958H859.122V214.531H830.705Z"></path>
<path fill="#4C6023" d="M27.2979 86.4932L27.8731 85.9179C37.8938 75.8947 54.2426 75.8973 64.2632 85.9179L87.2175 108.872C93.1745 114.826 102.918 114.826 108.875 108.872C114.832 102.915 114.832 93.1692 108.875 87.2149L85.9205 64.2632C75.8999 54.2426 75.8999 37.8964 85.9205 27.8731L86.4958 27.2979L116.095 56.8968C132.373 73.1751 132.373 99.8139 116.095 116.092C99.8165 132.37 73.1777 132.37 56.8994 116.092L27.3031 86.4932H27.2979Z" clip-rule="evenodd" fill-rule="evenodd"></path>
<path fill="#4C6023" d="M180.51 27.2951L181.085 27.8704C191.106 37.891 191.106 54.2399 181.085 64.2605L158.131 87.2122C152.174 93.1665 152.174 102.91 158.131 108.867C164.088 114.821 173.831 114.821 179.786 108.867L202.74 85.9151C212.761 75.8919 229.107 75.8919 239.13 85.9151L239.705 86.4904L210.109 116.087C193.831 132.365 167.192 132.365 150.914 116.087C134.636 99.8085 134.636 73.1697 150.914 56.8914L180.513 27.2925L180.51 27.2951Z" clip-rule="evenodd" fill-rule="evenodd"></path>
<path fill="#4C6023" d="M239.705 180.509L239.13 181.085C229.109 191.105 212.763 191.105 202.74 181.085L179.785 158.13C173.829 152.176 164.085 152.176 158.131 158.13C152.174 164.087 152.174 173.833 158.131 179.788L181.085 202.742C191.106 212.765 191.106 229.109 181.085 239.132L180.51 239.707L150.911 210.108C134.633 193.83 134.633 167.191 150.911 150.913C167.189 134.635 193.828 134.635 210.106 150.913L239.703 180.509H239.705Z" clip-rule="evenodd" fill-rule="evenodd"></path>
<path fill="#4C6023" d="M86.4912 239.705L85.9159 239.129C75.8953 229.109 75.8979 212.763 85.9159 202.739L108.87 179.785C114.825 173.831 114.825 164.085 108.87 158.13C102.913 152.173 93.1699 152.173 87.2156 158.13L64.2613 181.085C54.2407 191.105 37.8944 191.108 27.8712 181.085L27.2959 180.509L56.8923 150.913C73.1705 134.635 99.8093 134.635 116.088 150.913C132.366 167.191 132.366 193.83 116.088 210.108L86.4886 239.707L86.4912 239.705Z" clip-rule="evenodd" fill-rule="evenodd"></path>
<path fill="#4C6023" d="M267 133.5C259.333 124.256 247.759 118.367 234.812 118.367C221.865 118.367 210.292 124.256 202.624 133.5C210.289 142.747 221.863 148.633 234.812 148.633C247.762 148.633 259.335 142.744 267 133.5ZM0 133.503C7.66712 142.747 19.241 148.633 32.1878 148.633C45.1346 148.633 56.7085 142.747 64.3756 133.503C56.7111 124.256 45.1372 118.367 32.1878 118.367C19.2384 118.367 7.66712 124.256 0 133.503ZM133.503 267C142.747 259.333 148.636 247.759 148.636 234.812C148.636 221.865 142.749 210.292 133.503 202.624C124.256 210.289 118.37 221.863 118.37 234.812C118.37 247.762 124.259 259.335 133.503 267ZM133.5 0C124.256 7.66712 118.367 19.241 118.367 32.1878C118.367 45.1346 124.253 56.7085 133.5 64.3756C142.747 56.7085 148.633 45.1346 148.633 32.1878C148.633 19.241 142.744 7.66451 133.5 0Z" clip-rule="evenodd" fill-rule="evenodd"></path>
<path fill="#4C6023" d="M694.9 57.8765C702.725 47.8585 721.567 47.8752 736.721 36.9793C737.655 48.416 732.791 71.6971 724.965 81.7171C717.139 91.7371 704.491 96.2769 690.977 95.2709C686.732 82.4035 687.076 67.8945 694.9 57.8765Z"></path>
</svg>
