<svg xmlns="http://www.w3.org/2000/svg" fill="none" viewBox="0 0 100 101" height="101" width="100">
<path stroke-width="0.5" stroke="#2F3E10" fill="#2F3E10" d="M56.3264 95.7913C55.2214 95.7913 54.5414 95.7488 54.3997 95.7488C53.8189 95.7063 53.3655 95.2105 53.408 94.6155C53.4505 94.0346 53.9464 93.5813 54.5414 93.6238C54.7114 93.6238 72.4202 94.6438 81.1612 84.7836C88.8114 76.1558 87.3523 61.7338 86.8564 58.1354C83.2297 58.0645 68.7226 58.3762 61.0866 67.0039C59.7691 68.4915 58.6498 70.234 57.7431 72.2032C57.5023 72.7416 56.8648 72.9683 56.3406 72.7274C55.8023 72.4866 55.5756 71.8491 55.8164 71.3249C56.8081 69.1715 58.0407 67.2448 59.4999 65.6014C68.9351 54.962 87.0831 56.0103 87.8481 56.0528C88.3298 56.0812 88.7406 56.4353 88.8256 56.917C88.9673 57.6679 92.1974 75.5608 82.7621 86.2003C75.0269 94.9413 61.3983 95.8055 56.3548 95.8055L56.3264 95.7913Z"></path>
<path stroke-width="0.5" stroke="#2F3E10" fill="#2F3E10" d="M54.343 95.7207C54.2155 95.7207 54.0738 95.6924 53.9463 95.6499C53.4788 95.4657 42.301 90.8756 39.3968 81.5537C36.4783 72.2318 43.0518 62.1024 43.3352 61.6774C43.6185 61.2524 44.1569 61.0824 44.6244 61.2807C45.0919 61.4649 56.2697 66.055 59.1739 75.3769C62.0923 84.6988 55.5188 94.8282 55.2355 95.2532C55.0371 95.5649 54.6971 95.7349 54.343 95.7349V95.7207ZM44.6385 63.6183C43.236 66.0692 39.2409 73.946 41.4226 80.9162C43.6044 87.9006 51.3679 92.094 53.918 93.3124C55.3205 90.8615 59.3156 82.9846 57.1339 76.0144C54.9521 69.0159 47.1886 64.8366 44.6385 63.6183Z"></path>
<path stroke-width="0.5" stroke="#2F3E10" fill="#2F3E10" d="M42.9244 97.86C41.6777 97.86 40.4452 97.7892 39.1985 97.6475C24.5781 96.0041 12.6212 84.2313 10.7653 69.6534C8.76772 54.013 18.0188 39.3643 32.8517 34.5192V11.3278H32.4409C30.9816 11.3278 29.5933 10.7044 28.6016 9.62772C27.6241 8.55103 27.1424 7.09182 27.2982 5.63262C27.5532 3.02589 29.9191 1 32.6675 1H53.493C54.9381 1 56.3264 1.60918 57.304 2.67171C58.2815 3.73424 58.7632 5.17927 58.6357 6.62431C58.409 9.25938 56.0148 11.3278 53.1955 11.3278H53.0822V34.5192C63.7642 38.0185 71.9668 46.9012 74.5594 57.8523C74.6869 58.419 74.3469 58.9998 73.7661 59.1273C73.1852 59.2548 72.6185 58.9148 72.491 58.334C70.0118 47.8504 62.05 39.4068 51.708 36.3042C51.2547 36.1626 50.9572 35.7517 50.9572 35.2842V10.3219C50.9572 9.74106 51.4955 9.18854 52.0905 9.18854H53.1955C54.9239 9.18854 56.3831 7.97018 56.5106 6.42597C56.5815 5.56178 56.3123 4.72593 55.7173 4.10258C55.1364 3.47923 54.3289 3.11089 53.4789 3.11089H32.6533C30.9816 3.11089 29.5508 4.30092 29.395 5.83096C29.3099 6.70931 29.5791 7.54517 30.1599 8.18269C30.7408 8.8202 31.5625 9.18854 32.4125 9.18854H33.8859C34.4667 9.18854 34.9484 9.67022 34.9484 10.2511V35.2842C34.9484 35.7517 34.6367 36.1626 34.1976 36.3042C19.9314 40.5969 10.9495 54.5089 12.862 69.3701C14.6046 82.9846 25.7823 93.9782 39.4252 95.5224C44.6387 96.1033 49.8946 95.3666 54.6264 93.3974C55.1648 93.1707 55.7881 93.4257 56.0148 93.9641C56.2414 94.5024 55.9864 95.1258 55.4481 95.3524C51.5097 96.9958 47.2312 97.8458 42.9103 97.8458L42.9244 97.86Z"></path>
<path stroke-width="0.5" stroke="#2F3E10" fill="#2F3E10" d="M42.9666 90.3516C29.352 90.3516 18.2734 79.273 18.2734 65.6585C18.2734 61.3517 19.4209 57.1016 21.5743 53.3473C21.7018 53.1348 21.9002 52.9648 22.141 52.8798C26.4053 51.3639 31.6471 51.8031 37.7106 54.1973C46.2392 57.5549 55.2069 59.8216 63.1546 53.6732C63.3954 53.4748 63.7213 53.404 64.0329 53.4748C64.3446 53.5457 64.5996 53.7298 64.7413 54.0132C65.8888 56.1666 66.6255 58.4191 67.1072 61.3234C67.2064 61.9042 66.8097 62.4425 66.2288 62.5417C65.648 62.6267 65.0955 62.2442 65.0105 61.6634C64.6421 59.4675 64.1463 57.7391 63.4096 56.1099C54.8669 61.9467 45.2616 59.4533 36.9314 56.1666C31.6046 54.0698 26.8728 53.5882 23.2177 54.7499C21.3618 58.0933 20.3843 61.8475 20.3843 65.6443C20.3843 78.083 30.5137 88.2124 42.9524 88.2124C43.6749 88.2124 44.4116 88.184 45.1199 88.1132C45.7008 88.0565 46.225 88.4816 46.2816 89.0766C46.3383 89.6574 45.9133 90.1816 45.3183 90.2383C44.5391 90.3091 43.7458 90.3516 42.9382 90.3516H42.9666Z"></path>
<path stroke-width="0.5" stroke="#2F3E10" fill="#2F3E10" d="M40.0196 11.3421H32.9502C32.3694 11.3421 31.8877 10.8604 31.8877 10.2796C31.8877 9.69872 32.3694 9.21704 32.9502 9.21704H40.0196C40.6004 9.21704 41.0821 9.69872 41.0821 10.2796C41.0821 10.8604 40.6004 11.3421 40.0196 11.3421Z"></path>
<path stroke-width="0.5" stroke="#2F3E10" fill="#2F3E10" d="M52.8975 11.3421H48.8741C48.2932 11.3421 47.8115 10.8604 47.8115 10.2796C47.8115 9.69872 48.2932 9.21704 48.8741 9.21704H52.8975C53.4783 9.21704 53.96 9.69872 53.96 10.2796C53.96 10.8604 53.4783 11.3421 52.8975 11.3421Z"></path>
<path stroke-width="0.5" stroke="#2F3E10" fill="#2F3E10" d="M30.1454 71.5519C26.887 71.5519 24.252 68.9026 24.252 65.6584C24.252 62.4141 26.9012 59.7649 30.1454 59.7649C33.3897 59.7649 36.0389 62.4141 36.0389 65.6584C36.0389 68.9026 33.3897 71.5519 30.1454 71.5519ZM30.1454 61.8899C28.0629 61.8899 26.377 63.5758 26.377 65.6584C26.377 67.7409 28.0629 69.4268 30.1454 69.4268C32.228 69.4268 33.9139 67.7409 33.9139 65.6584C33.9139 63.5758 32.228 61.8899 30.1454 61.8899Z"></path>
<path stroke-width="0.5" stroke="#2F3E10" fill="#2F3E10" d="M54.1169 94.715C53.5928 94.715 53.1394 94.3325 53.0686 93.8083C52.4169 89.2465 51.2552 83.2963 48.0393 77.7145C47.7418 77.2045 47.926 76.5528 48.436 76.2695C48.946 75.972 49.5977 76.1562 49.881 76.6662C53.2669 82.5597 54.4853 88.7648 55.1653 93.5108C55.2503 94.0916 54.8395 94.63 54.2586 94.715C54.2019 94.715 54.1595 94.715 54.1028 94.715H54.1169Z"></path>
<path stroke-width="0.5" stroke="#2F3E10" fill="#2F3E10" d="M55.3195 95.1116C55.1495 95.1116 54.9653 95.0691 54.8095 94.9841C54.2995 94.7008 54.1153 94.0491 54.3987 93.5391C60.4338 82.6021 66.7523 75.2778 73.7225 71.1835C74.2325 70.886 74.8842 71.056 75.1817 71.566C75.4792 72.076 75.3092 72.7277 74.7992 73.0252C68.169 76.9212 62.1055 83.9763 56.2545 94.5733C56.0562 94.9274 55.702 95.1258 55.3195 95.1258V95.1116Z"></path>
</svg>
