<svg xmlns="http://www.w3.org/2000/svg" fill="none" viewBox="0 0 100 102" height="102" width="100">
<path stroke-width="0.5" stroke="#2F3E10" fill="#2F3E10" d="M71.3997 94.5315C71.0185 94.5315 70.6635 94.308 70.4926 93.9399C70.2691 93.4403 70.4926 92.8619 71.0053 92.6384C84.5862 86.6959 93.6709 75.3499 94.9725 62.8471H4.36272C5.65114 75.3499 14.7358 86.6827 28.3036 92.6252C28.8032 92.8487 29.0267 93.4272 28.8163 93.9268C28.5928 94.4264 28.0144 94.6499 27.5148 94.4395C12.8952 88.0369 3.24523 75.5866 2.31178 61.9268C2.29864 61.6507 2.39068 61.3877 2.57474 61.1905C2.7588 60.9933 3.02173 60.875 3.29781 60.875H96.0636C96.3397 60.875 96.6027 60.9933 96.7868 61.1905C96.9708 61.3877 97.0628 61.6638 97.0497 61.9268C96.1162 75.5866 86.4531 88.05 71.8204 94.4395C71.6889 94.4921 71.5575 94.5184 71.426 94.5184L71.3997 94.5315Z"></path>
<path stroke-width="0.5" stroke="#2F3E10" fill="#2F3E10" d="M73.6347 101H25.7004C25.398 101 25.1088 100.869 24.9248 100.632C24.7407 100.396 24.6749 100.093 24.7407 99.7907L26.2526 93.3355C26.3578 92.8885 26.7522 92.573 27.2123 92.573H72.1228C72.5829 92.573 72.9774 92.8885 73.0825 93.3355L74.5944 99.7907C74.6602 100.08 74.5944 100.396 74.4104 100.632C74.2263 100.869 73.9371 101 73.6347 101ZM26.9363 99.0282H72.3857L71.3339 94.5451H27.988L26.9363 99.0282Z"></path>
<path stroke-width="0.5" stroke="#2F3E10" fill="#2F3E10" d="M49.825 57.2728C49.733 57.2728 49.641 57.2597 49.5489 57.2334C48.7207 56.9836 29.1973 51.0411 29.1973 35.4881C29.1973 19.9351 48.3394 2.02876 49.1545 1.26623C49.5358 0.911257 50.1274 0.911257 50.5087 1.26623C51.3238 2.02876 70.4659 20.2506 70.4659 35.4881C70.4659 50.7256 50.9426 56.9836 50.1143 57.2334C50.0223 57.2597 49.9302 57.2728 49.8382 57.2728H49.825ZM49.825 3.35662C46.4068 6.76171 31.1693 22.6434 31.1693 35.4881C31.1693 48.3328 47.4717 54.4725 49.825 55.2482C52.1784 54.4725 68.4808 48.6089 68.4808 35.4881C68.4808 22.3673 53.2433 6.76171 49.825 3.35662Z"></path>
<path stroke-width="0.5" stroke="#2F3E10" fill="#2F3E10" d="M49.8259 57.2728C49.2868 57.2728 48.8398 56.8258 48.8398 56.2867V15.728C48.8398 15.1889 49.2868 14.7419 49.8259 14.7419C50.3649 14.7419 50.8119 15.1889 50.8119 15.728V56.2867C50.8119 56.8258 50.3781 57.2728 49.8259 57.2728Z"></path>
<path stroke-width="0.5" stroke="#2F3E10" fill="#2F3E10" d="M49.6672 45.7299C49.4174 45.7299 49.1676 45.6378 48.9704 45.4406L41.3582 37.8285C40.9769 37.4472 40.9769 36.8161 41.3582 36.4349C41.7395 36.0536 42.3705 36.0536 42.7518 36.4349L50.364 44.047C50.7452 44.4283 50.7452 45.0594 50.364 45.4406C50.1668 45.6378 49.917 45.7299 49.6672 45.7299Z"></path>
<path stroke-width="0.5" stroke="#2F3E10" fill="#2F3E10" d="M49.6674 30.8077C49.4176 30.8077 49.1678 30.7157 48.9706 30.5185L44.0799 25.6278C43.6986 25.2465 43.6986 24.6155 44.0799 24.2342C44.4612 23.8529 45.0922 23.8529 45.4735 24.2342L50.3642 29.1249C50.7455 29.5062 50.7455 30.1372 50.3642 30.5185C50.167 30.7157 49.9172 30.8077 49.6674 30.8077Z"></path>
<path stroke-width="0.5" stroke="#2F3E10" fill="#2F3E10" d="M49.9827 45.7299C49.7329 45.7299 49.4832 45.6378 49.2859 45.4406C48.9047 45.0594 48.9047 44.4283 49.2859 44.047L56.8981 36.4349C57.2794 36.0536 57.9104 36.0536 58.2917 36.4349C58.673 36.8161 58.673 37.4472 58.2917 37.8285L50.6795 45.4406C50.4823 45.6378 50.2325 45.7299 49.9827 45.7299Z"></path>
<path stroke-width="0.5" stroke="#2F3E10" fill="#2F3E10" d="M49.9827 30.8077C49.7329 30.8077 49.4832 30.7157 49.2859 30.5185C48.9047 30.1372 48.9047 29.5062 49.2859 29.1249L54.1767 24.2342C54.5579 23.8529 55.189 23.8529 55.5703 24.2342C55.9515 24.6155 55.9515 25.2465 55.5703 25.6278L50.6795 30.5185C50.4823 30.7157 50.2325 30.8077 49.9827 30.8077Z"></path>
<path stroke-width="0.5" stroke="#2F3E10" fill="#2F3E10" d="M69.8073 55.2616C64.2593 55.2616 59.5132 53.5525 59.1451 53.4079C58.6323 53.2238 58.3694 52.6585 58.5666 52.1457C58.7507 51.633 59.3291 51.3832 59.8287 51.5673C59.9865 51.6199 75.3817 57.1679 82.3891 47.7809C88.7392 39.2879 86.6093 21.329 85.9914 17.0299C83.0596 17.4506 73.8304 19.0019 66.2577 22.6305C65.7581 22.8672 65.1796 22.6568 64.9429 22.1704C64.7063 21.6839 64.9167 21.0923 65.4031 20.8557C74.8033 16.3462 86.2281 14.9921 86.7014 14.9395C87.2141 14.8869 87.7005 15.2419 87.7794 15.7546C87.9372 16.688 91.671 38.6437 83.9536 48.9641C80.2461 53.9206 74.6981 55.2616 69.7942 55.2616H69.8073Z"></path>
<path stroke-width="0.5" stroke="#2F3E10" fill="#2F3E10" d="M69.544 40.0242C69.3337 40.0242 69.1364 39.9584 68.9524 39.827C68.5185 39.4983 68.4265 38.8804 68.7552 38.4465L78.4183 25.5229C78.747 25.0891 79.3649 24.9971 79.7987 25.3257C80.2326 25.6544 80.3246 26.2723 79.9959 26.7062L70.3329 39.6298C70.1356 39.8927 69.8464 40.0242 69.544 40.0242Z"></path>
<path stroke-width="0.5" stroke="#2F3E10" fill="#2F3E10" d="M29.5129 55.2614C24.5959 55.2614 19.061 53.9203 15.3535 48.9639C7.63613 38.6434 11.3699 16.6878 11.5277 15.7544C11.6197 15.2416 12.093 14.8867 12.6057 14.9392C13.0922 14.9918 24.517 16.346 33.904 20.8554C34.3904 21.0921 34.6008 21.6837 34.3641 22.1701C34.1275 22.6566 33.5359 22.8669 33.0494 22.6303C25.4767 18.9885 16.2475 17.4503 13.3157 17.0296C12.6977 21.3287 10.5679 39.2876 16.918 47.7807C23.9385 57.1677 39.3338 51.6196 39.4784 51.567C39.9911 51.383 40.5564 51.6459 40.7405 52.1455C40.9245 52.6582 40.6748 53.2235 40.162 53.4076C39.7939 53.5391 35.0478 55.2614 29.4997 55.2614H29.5129Z"></path>
<path stroke-width="0.5" stroke="#2F3E10" fill="#2F3E10" d="M29.7765 40.0239C29.4741 40.0239 29.1848 39.8925 28.9876 39.6295L19.3245 26.7059C18.9958 26.2721 19.0879 25.6542 19.5217 25.3255C19.9556 24.9968 20.5735 25.0888 20.9022 25.5227L30.5653 38.4463C30.894 38.8801 30.8019 39.4981 30.3681 39.8267C30.1972 39.9582 29.9868 40.0239 29.7765 40.0239Z"></path>
<path stroke-width="0.5" stroke="#2F3E10" fill="#2F3E10" d="M30.5645 41.3254C30.5645 41.3254 30.4856 41.3254 30.433 41.3254L21.7428 40.1948C21.2038 40.1291 20.8225 39.6295 20.8882 39.0904C20.954 38.5514 21.4404 38.1701 21.9926 38.2359L30.6828 39.3665C31.2219 39.4323 31.6031 39.9319 31.5374 40.4709C31.4716 40.9705 31.0509 41.3254 30.5645 41.3254Z"></path>
<path stroke-width="0.5" stroke="#2F3E10" fill="#2F3E10" d="M69.0994 41.3255C68.613 41.3255 68.1922 40.9573 68.1265 40.4709C68.0608 39.9319 68.442 39.4323 68.9811 39.3665L77.6713 38.2359C78.1972 38.157 78.7099 38.5514 78.7757 39.0904C78.8414 39.6295 78.4601 40.1291 77.9211 40.1948L69.2309 41.3255C69.2309 41.3255 69.1389 41.3255 69.0994 41.3255Z"></path>
</svg>
